<?xml version="1.0" encoding="utf-8"?>
<!-- Generator: Adobe Illustrator 28.2.0, SVG Export Plug-In . SVG Version: 6.00 Build 0)  -->
<svg version="1.1" id="Layer_1" xmlns="http://www.w3.org/2000/svg" xmlns:xlink="http://www.w3.org/1999/xlink" x="0px" y="0px"
	 viewBox="0 0 150 150" style="enable-background:new 0 0 150 150;" xml:space="preserve">
<style type="text/css">
	.st0{display:none;}
	.st1{display:inline;}
	.st2{fill:#29166F;}
</style>
<g class="st0">
	<g class="st1">
		<path d="M61,26v9.33c0,1.29-1.04,2.33-2.33,2.33c-1.29,0-2.33-1.04-2.33-2.33V26c0-1.29,1.04-2.33,2.33-2.33
			C59.95,23.67,61,24.71,61,26z M93.66,94.83c0,8.38-6.79,15.17-15.17,15.17s-15.17-6.79-15.17-15.17s6.79-15.17,15.17-15.17
			C86.87,79.67,93.65,86.46,93.66,94.83z M89,94.83c0-5.8-4.7-10.5-10.5-10.5S68,89.03,68,94.83c0,5.8,4.7,10.5,10.5,10.5
			C84.29,105.32,88.99,100.63,89,94.83z M51.66,86.66c0,3.87-3.13,7-7,7s-7-3.13-7-7c0-3.87,3.13-7,7-7
			C48.53,79.67,51.66,82.8,51.66,86.66z M47,86.66c0-1.29-1.04-2.33-2.33-2.33c-1.29,0-2.33,1.04-2.33,2.33
			c0,1.29,1.04,2.33,2.33,2.33C45.95,88.99,47,87.95,47,86.66z M51.66,103c0,3.87-3.13,7-7,7s-7-3.13-7-7c0-3.87,3.13-7,7-7
			C48.53,96,51.66,99.13,51.66,103z M47,103c0-1.29-1.04-2.33-2.33-2.33c-1.29,0-2.33,1.04-2.33,2.33s1.04,2.33,2.33,2.33
			C45.95,105.33,47,104.28,47,103z M144.99,43.2v99.46c0,1.29-1.04,2.33-2.33,2.33h-16.33c-0.73,0-1.43-0.35-1.87-0.93l-6.3-8.4
			H36.5l-6.3,8.4c-0.44,0.59-1.13,0.93-1.87,0.93h-21c-1.29,0-2.33-1.04-2.33-2.33v-70c0-1.29,1.04-2.33,2.33-2.33h9.33v-7
			c0-1.29,1.04-2.33,2.33-2.33h28c1.29,0,2.33,1.04,2.33,2.33v7H68v-7c0-1.29,1.04-2.33,2.33-2.33h28c1.29,0,2.33,1.04,2.33,2.33v7
			h7V39.02h-35v5.65c0,1.29-1.04,2.33-2.33,2.33h-0.98l-4.66,8.16c-0.42,0.73-1.19,1.18-2.02,1.18H61v2.33
			c0,1.29-1.04,2.33-2.33,2.33c-1.29,0-2.33-1.04-2.33-2.33v-2.33h-1.67c-0.84,0-1.61-0.45-2.03-1.18L47.98,47H47
			c-1.29,0-2.33-1.04-2.33-2.33v-28c0-1.29,1.04-2.33,2.33-2.33h2.33v-7c0-1.29,1.04-2.33,2.33-2.33h14C66.95,5,68,6.05,68,7.33v7
			h2.33c1.29,0,2.33,1.04,2.33,2.33v4.67h46.66c0.55,0,1.08,0.19,1.5,0.54l9.33,7.81l0,0l14,11.71
			C144.68,41.85,144.99,42.5,144.99,43.2z M54,14.33h9.33V9.67H54V14.33z M63.98,47H53.35l2.67,4.67h5.29L63.98,47z M68,19H49.33
			v23.33H68V19z M109.99,34.35c1.29,0,2.33,1.04,2.33,2.33v77.98h14V32.57L118.48,26H72.66v8.35H109.99z M72.66,70.33h23.33v-4.67
			H72.66V70.33z M21.33,70.33h23.33v-4.67H21.33V70.33z M9.67,114.66h97.99V75H9.67V114.66z M140.33,119.33H9.67v21h17.5l6.3-8.4
			c0.44-0.59,1.13-0.93,1.87-0.93h84c0.73,0,1.43,0.35,1.87,0.93l6.3,8.4h12.83V119.33z M140.33,44.29l-9.33-7.81v78.18h9.33V44.29z
			"/>
	</g>
</g>
<g id="Logo">
	<path class="st2" d="M75.98,24.73c0.04,0,0.08,0,0.12,0c1.3,0,2.6,0.01,3.89,0.11c0.05,0,0.09,0.01,0.14,0.01
		c2.18,0.16,4.35,0.42,6.51,0.78c0.06,0.01,0.06,0.01,0.12,0.02c2.03,0.34,4.05,0.8,6.03,1.36c0.05,0.01,0.05,0.01,0.1,0.03
		c2.94,0.82,5.83,1.86,8.61,3.12c0.07,0.03,0.07,0.03,0.15,0.07c1.49,0.67,2.98,1.39,4.39,2.22c0.2,0.11,0.4,0.23,0.6,0.34
		c0.56,0.31,1.11,0.63,1.65,0.97c0.06,0.04,0.06,0.04,0.13,0.08c0.62,0.39,1.23,0.79,1.84,1.2c0.03,0.02,0.07,0.04,0.1,0.07
		c1,0.68,1.97,1.39,2.92,2.13c0.05,0.04,0.11,0.08,0.16,0.13c0.36,0.28,0.71,0.56,1.05,0.86c0.17,0.14,0.33,0.28,0.5,0.42
		c0.21,0.17,0.41,0.34,0.61,0.52c0.1,0.09,0.21,0.19,0.31,0.28c0.71,0.62,1.39,1.25,2.04,1.92c0.11,0.11,0.21,0.21,0.32,0.32
		c0.05,0.05,0.1,0.1,0.16,0.16c0.03,0.03,0.05,0.05,0.08,0.08c0.25,0.25,0.25,0.25,0.33,0.33c0.06,0.06,0.13,0.13,0.19,0.19
		c0.17,0.17,0.34,0.35,0.51,0.53c0.05,0.06,0.05,0.06,0.11,0.11c0.25,0.27,0.5,0.54,0.74,0.81c0.03,0.03,0.06,0.06,0.09,0.1
		c0.2,0.22,0.39,0.46,0.58,0.69c0.13,0.16,0.27,0.32,0.4,0.48c0.18,0.21,0.35,0.42,0.5,0.65c0.35-0.11,0.67-0.24,1.01-0.39
		c3.29-1.41,6.75-2.48,10.3-2.99c0.03-0.01,0.07-0.01,0.1-0.02c1.03-0.15,2.06-0.22,3.1-0.21c0.08,0,0.08,0,0.16,0
		c0.79,0,1.57,0.02,2.36,0.16c0.05,0.01,0.1,0.02,0.15,0.03c0.97,0.18,1.88,0.44,2.49,1.27c0.69,1.08,0.58,2.46,0.33,3.66
		c-0.32,1.39-0.93,2.85-1.79,4c-0.02,0.03-0.04,0.05-0.06,0.08c-0.47,0.62-0.99,1.21-1.52,1.79c-0.03,0.04-0.03,0.04-0.07,0.07
		c-0.46,0.51-0.93,1.01-1.46,1.45c-0.05,0.05-0.11,0.09-0.16,0.14c-0.32,0.28-0.64,0.54-0.98,0.79c-0.16,0.11-0.31,0.23-0.46,0.35
		c-0.22,0.17-0.44,0.33-0.66,0.49c-0.49,0.35-0.97,0.71-1.44,1.09c-0.08,0.07-0.16,0.13-0.25,0.2c-0.03,0.02-0.06,0.04-0.08,0.07
		c-1.96,1.56-4.31,2.64-6.6,3.62c-0.11,0.05-0.22,0.09-0.32,0.14c-3.67,1.58-7.57,2.89-18.44,4.19c0,0.03,0,0.06-0.01,0.09
		c-0.03,0.28-0.06,0.55-0.11,0.83c-0.3,1.77-0.54,3.97,0.56,5.53c0.48,0.58,1.12,0.89,1.87,0.98c2.22,0.12,4.29-0.71,6.29-1.6
		c0.14-0.06,0.28-0.12,0.42-0.19c0.4-0.18,0.8-0.36,1.19-0.56c0.17-0.08,0.33-0.17,0.5-0.25c0.63-0.31,1.22-0.64,1.79-1.05
		c0.06-0.04,0.12-0.09,0.19-0.13c0.39-0.27,0.77-0.56,1.14-0.85c0.03-0.02,0.06-0.04,0.09-0.07c0.5-0.39,1-0.79,1.5-1.2
		c0.09-0.07,0.18-0.15,0.27-0.22c0.29-0.23,0.57-0.47,0.84-0.71c0.18-0.15,0.36-0.3,0.54-0.45c0.22-0.17,0.42-0.36,0.63-0.54
		c0.13-0.11,0.25-0.22,0.39-0.32c0.27-0.22,0.52-0.45,0.77-0.68c0.15-0.14,0.29-0.27,0.45-0.4c0.11-0.1,0.22-0.2,0.33-0.3
		c0.17-0.16,0.35-0.31,0.53-0.45c0.2-0.16,0.39-0.33,0.57-0.52c0.12-0.12,0.25-0.23,0.37-0.34c0.14-0.12,0.27-0.24,0.41-0.37
		c0.16-0.15,0.32-0.3,0.49-0.44c0.26-0.22,0.51-0.46,0.76-0.69c0.13-0.12,0.25-0.23,0.38-0.35c0.02-0.02,0.05-0.04,0.07-0.07
		c0.12-0.11,0.24-0.22,0.36-0.33c0.21-0.2,0.43-0.39,0.64-0.59c0.03-0.03,0.06-0.06,0.1-0.09c0.06-0.06,0.13-0.12,0.19-0.18
		c0.16-0.15,0.32-0.3,0.5-0.43c-0.03,0.16-0.09,0.28-0.18,0.43c-0.04,0.07-0.04,0.07-0.08,0.14c-0.03,0.05-0.06,0.1-0.09,0.15
		c-0.03,0.05-0.06,0.1-0.09,0.15c-0.21,0.34-0.42,0.68-0.64,1.02c-0.96,1.5-1.75,3.1-2.51,4.71c-0.7,1.47-1.42,2.93-2.15,4.38
		c-0.06,0.12-0.12,0.24-0.18,0.36c-0.39,0.79-0.79,1.58-1.2,2.35c-0.08,0.15-0.16,0.3-0.23,0.45c-0.26,0.5-0.52,1.01-0.8,1.5
		c-0.11,0.19-0.21,0.39-0.31,0.59c-0.22,0.44-0.46,0.87-0.69,1.3c-0.14,0.25-0.27,0.5-0.41,0.75c-0.24,0.45-0.49,0.9-0.74,1.34
		c-0.08,0.14-0.15,0.27-0.23,0.41c-0.32,0.57-0.64,1.14-0.97,1.7c-0.18,0.3-0.35,0.61-0.52,0.92c-0.28,0.51-0.57,1.02-0.87,1.52
		c-0.09,0.15-0.18,0.31-0.27,0.46c-0.34,0.58-0.68,1.15-1.05,1.71c-0.02,0.03-0.04,0.06-0.06,0.1c-0.49,0.73-1,1.44-1.56,2.12
		c-0.03,0.04-0.07,0.08-0.1,0.13c-0.7,0.86-1.45,1.67-2.23,2.46c-0.06,0.06-0.12,0.12-0.18,0.18c-0.09,0.09-0.17,0.17-0.26,0.26
		c-0.03,0.03-0.05,0.05-0.08,0.08c-0.18,0.18-0.18,0.18-0.29,0.18c0,0.03,0,0.06,0,0.1c-0.06,0.06-0.06,0.06-0.15,0.14
		c-0.04,0.03-0.07,0.06-0.11,0.09c-0.04,0.04-0.09,0.07-0.13,0.11c-0.05,0.04-0.1,0.09-0.15,0.13c-0.62,0.54-1.25,1.06-1.92,1.54
		c-0.03,0.02-0.07,0.05-0.1,0.07c-2.47,1.81-5.19,3.26-8.07,4.31c-0.03,0.01-0.07,0.02-0.1,0.04c-2.44,0.89-5,1.44-7.58,1.68
		c-0.09,0.01-0.19,0.02-0.28,0.03c-1.66,0.15-3.37,0.15-5.04-0.02c-0.06-0.01-0.13-0.01-0.19-0.02c-3.62-0.36-7.18-1.46-10.31-3.31
		c-0.05-0.03-0.1-0.06-0.15-0.09c-0.35-0.21-0.65-0.45-0.96-0.71c-0.04-0.03-0.08-0.07-0.12-0.1c-0.58-0.5-1.14-1.05-1.61-1.66
		c-0.1-0.13-0.22-0.24-0.34-0.36c-0.02,0.02-0.04,0.04-0.07,0.07c-0.1,0.1-0.2,0.2-0.3,0.31c-0.03,0.03-0.07,0.07-0.1,0.1
		c-0.23,0.23-0.46,0.45-0.71,0.65c-0.03,0.03-0.06,0.05-0.09,0.08c-0.52,0.44-1.06,0.83-1.63,1.2c-0.03,0.02-0.06,0.04-0.09,0.06
		c-1.11,0.73-2.31,1.25-3.6,1.52c-0.06,0.01-0.12,0.02-0.17,0.04c-1.81,0.32-3.64-0.22-5.13-1.26c-0.29-0.21-0.54-0.44-0.8-0.69
		c-0.03-0.03-0.06-0.06-0.1-0.09c-0.7-0.64-1.16-1.59-1.48-2.47c-0.01-0.03-0.02-0.07-0.04-0.1c-1.36-3.75,0.21-7.79,1.16-11.49
		c1-3.42,1-3.42,0.85-6.91c-0.01-0.05-0.03-0.11-0.04-0.16c-0.22-0.73-0.7-1.33-1.33-1.76c-0.54-0.29-1.17-0.26-1.77-0.26
		c-0.06,0-0.06,0-0.13,0c-0.81,0-1.62,0.05-2.43,0.11c-1.53,0.12-1.53,0.12-2.12-0.33c-0.29-0.28-0.41-0.6-0.43-1
		c0.02-0.52,0.27-0.92,0.62-1.29c0.43-0.37,0.99-0.37,1.53-0.34c0.34,0.03,0.68,0.07,1.02,0.12c0.09,0.01,0.18,0.02,0.27,0.03
		c0.13,0.02,0.26,0.03,0.4,0.05c0.29,0.04,0.58,0.07,0.87,0.1c0.04,0,0.07,0.01,0.11,0.01c2.77,0.3,5.37-0.15,7.57-1.92
		c0.23-0.19,0.45-0.39,0.67-0.59c0.11-0.1,0.21-0.19,0.32-0.28c0.39-0.34,0.75-0.72,1.08-1.11c0.04-0.05,0.09-0.1,0.13-0.15
		c0.82-0.93,1.54-1.95,2.13-3.05c0.06-0.11,0.11-0.21,0.17-0.31c0.87-1.6,1.42-3.35,1.65-5.15c0.01-0.05,0.01-0.05,0.01-0.11
		c0.05-0.41,0.05-0.82,0.05-1.23c0-0.04,0-0.08,0-0.12c0-1.65-0.35-3.24-1.14-4.69c-0.02-0.05-0.02-0.05-0.05-0.09
		c-0.35-0.66-0.8-1.32-1.34-1.84c-0.09-0.09-0.09-0.09-0.09-0.19c-0.05-0.02-0.1-0.03-0.15-0.05c-0.12-0.11-0.23-0.23-0.34-0.35
		c-0.03-0.04-0.07-0.07-0.1-0.11c-0.03-0.03-0.06-0.07-0.1-0.1c-0.1-0.09-0.16-0.1-0.29-0.13c-0.56,0.58-0.56,0.58-1.06,1.2
		c-0.02,0.03-0.05,0.05-0.07,0.08c-0.03,0-0.06,0-0.1,0c-0.01,0.03-0.02,0.06-0.04,0.08c-0.07,0.13-0.16,0.23-0.26,0.34
		c-0.2,0.22-0.38,0.44-0.57,0.67c-0.1,0.13-0.21,0.25-0.31,0.37c-0.41,0.48-0.8,0.98-1.18,1.48c-0.12,0.15-0.24,0.31-0.36,0.46
		c-0.56,0.71-1.09,1.44-1.62,2.18c-0.18,0.24-0.35,0.48-0.54,0.72c-0.24,0.32-0.46,0.64-0.69,0.96c-0.16,0.24-0.32,0.47-0.49,0.7
		c-0.28,0.39-0.55,0.79-0.82,1.18c-0.07,0.1-0.14,0.2-0.21,0.3c-0.37,0.54-0.74,1.09-1.1,1.64c-0.3,0.45-0.6,0.89-0.9,1.33
		c-0.39,0.57-0.77,1.15-1.15,1.73c-0.05,0.07-0.09,0.14-0.14,0.21c-0.02,0.03-0.04,0.07-0.07,0.1c-0.17,0.26-0.34,0.52-0.51,0.77
		c-0.2,0.3-0.4,0.6-0.6,0.9c-0.22,0.33-0.43,0.66-0.66,0.99c-0.28,0.41-0.55,0.83-0.82,1.24c-0.53,0.82-0.53,0.82-0.8,1.22
		c-0.2,0.3-0.4,0.61-0.6,0.91c-0.03,0.05-0.06,0.09-0.09,0.14c-0.13,0.19-0.25,0.38-0.38,0.57c-0.09,0.14-0.19,0.28-0.28,0.43
		c-0.03,0.04-0.06,0.08-0.08,0.13c-0.17,0.25-0.34,0.5-0.51,0.75c-0.11,0.15-0.21,0.3-0.31,0.46c-0.02,0.03-0.04,0.06-0.06,0.09
		c-0.04,0.06-0.09,0.13-0.13,0.19c-0.11,0.17-0.23,0.34-0.34,0.51c-0.02,0.03-0.05,0.07-0.07,0.1c-0.53,0.79-1.07,1.58-1.62,2.35
		c-0.03,0.04-0.05,0.07-0.08,0.11c-0.12,0.17-0.25,0.35-0.37,0.52c-0.1,0.14-0.19,0.27-0.29,0.41c-0.74,1.05-1.49,2.09-2.27,3.11
		c-0.2,0.26-0.4,0.53-0.6,0.79c-0.2,0.27-0.41,0.54-0.62,0.81c-0.15,0.19-0.3,0.38-0.45,0.58c-0.22,0.29-0.45,0.57-0.68,0.85
		c-0.07,0.09-0.15,0.18-0.22,0.27c-0.04,0.04-0.07,0.09-0.11,0.14c-0.07,0.09-0.15,0.18-0.22,0.27c-0.22,0.27-0.45,0.54-0.68,0.81
		c-0.14,0.17-0.29,0.34-0.43,0.51c-0.19,0.23-0.39,0.46-0.59,0.68c-0.11,0.12-0.21,0.23-0.31,0.35c-0.03,0.03-0.05,0.06-0.08,0.09
		c-0.08,0.09-0.08,0.09-0.17,0.23c-0.03,0-0.06,0-0.1,0c-0.01,0.03-0.03,0.06-0.04,0.09c-0.07,0.12-0.14,0.21-0.24,0.31
		c-0.03,0.04-0.07,0.07-0.11,0.11s-0.07,0.08-0.11,0.11c-0.07,0.07-0.14,0.15-0.22,0.22c-0.03,0.03-0.06,0.07-0.1,0.1
		c-0.09,0.1-0.09,0.1-0.18,0.24c-0.03,0-0.06,0-0.1,0c-0.01,0.03-0.02,0.06-0.04,0.08c-0.08,0.14-0.18,0.24-0.29,0.35
		c-0.02,0.02-0.05,0.05-0.07,0.07c-0.08,0.08-0.15,0.15-0.23,0.23c-0.05,0.05-0.11,0.11-0.16,0.16c-0.11,0.11-0.22,0.22-0.33,0.33
		c-0.14,0.14-0.28,0.28-0.42,0.42c-0.11,0.11-0.22,0.22-0.33,0.33c-0.05,0.05-0.1,0.1-0.16,0.16c-0.26,0.26-0.52,0.51-0.8,0.75
		c-0.13,0.12-0.26,0.24-0.39,0.36c-0.24,0.22-0.49,0.43-0.74,0.64c-0.13,0.1-0.25,0.21-0.36,0.32c-0.27,0.25-0.56,0.47-0.85,0.69
		c-0.1,0.08-0.21,0.16-0.31,0.24c-0.66,0.52-1.34,1.03-2.05,1.48c-0.11,0.07-0.11,0.07-0.15,0.17c0.03,0.01,0.07,0.02,0.11,0.04
		c0.16,0.07,0.28,0.15,0.42,0.25c0.78,0.55,1.61,1.04,2.43,1.53c0.04,0.03,0.09,0.05,0.13,0.08c1.11,0.66,2.24,1.28,3.38,1.87
		c0.22,0.11,0.43,0.22,0.65,0.34c0.53,0.29,1.08,0.53,1.62,0.78c0.2,0.09,0.39,0.18,0.59,0.27c0.82,0.38,1.65,0.74,2.49,1.08
		c0.03,0.01,0.06,0.03,0.1,0.04c4.37,1.78,8.91,3.09,13.54,4c0.06,0.01,0.06,0.01,0.12,0.02c3.51,0.69,7.1,1.1,10.68,1.25
		c0.09,0,0.17,0.01,0.25,0.01c1.1,0.06,2.18,0.06,3.26,0.06c0.05,0,0.09,0,0.14,0c1.45,0,2.9-0.01,4.35-0.11
		c0.05,0,0.1-0.01,0.15-0.01c5.38-0.35,10.71-1.2,25.15-5.99c0.03-0.01,0.07-0.03,0.1-0.04c1.13-0.51,2.26-1.01,3.35-1.6
		c0.18-0.1,0.36-0.19,0.54-0.28c0.7-0.36,1.39-0.73,2.07-1.13c0.06-0.03,0.11-0.07,0.17-0.1c0.74-0.43,1.48-0.87,2.2-1.34
		c0.15-0.1,0.3-0.19,0.45-0.29c0.56-0.36,1.12-0.72,1.66-1.11c0.13-0.1,0.27-0.19,0.41-0.29c0.71-0.5,1.41-1.02,2.1-1.56
		c0.05-0.04,0.11-0.08,0.16-0.12c0.35-0.26,0.68-0.53,1.02-0.81c0.09-0.07,0.17-0.14,0.26-0.21c0.3-0.24,0.59-0.49,0.88-0.74
		c0.09-0.08,0.18-0.16,0.28-0.24c0.33-0.28,0.66-0.57,0.97-0.87c0.14-0.13,0.28-0.26,0.43-0.38c0.18-0.16,0.35-0.33,0.52-0.5
		c0.22-0.22,0.45-0.42,0.7-0.6c-0.07,0.18-0.15,0.33-0.26,0.48c-0.03,0.05-0.06,0.09-0.1,0.14c-0.03,0.05-0.07,0.1-0.1,0.15
		c-0.04,0.05-0.07,0.1-0.11,0.15c-0.49,0.69-0.99,1.37-1.51,2.03c-0.04,0.06-0.09,0.11-0.13,0.17c-0.29,0.37-0.58,0.73-0.88,1.08
		c-0.12,0.13-0.23,0.27-0.34,0.41c-0.02,0.03-0.04,0.05-0.07,0.08c-0.15,0.17-0.29,0.35-0.43,0.52c-0.15,0.18-0.3,0.35-0.47,0.52
		c-0.08,0.08-0.16,0.17-0.23,0.25c-0.52,0.6-1.08,1.17-1.65,1.73c-0.11,0.11-0.23,0.23-0.34,0.34c-0.07,0.07-0.15,0.15-0.22,0.22
		c-0.03,0.03-0.07,0.07-0.1,0.1c-0.19,0.19-0.39,0.37-0.59,0.55c-0.09,0.08-0.18,0.16-0.26,0.25c-0.15,0.15-0.3,0.29-0.46,0.42
		c-0.12,0.1-0.23,0.21-0.35,0.31c-0.19,0.17-0.39,0.33-0.59,0.49c-0.11,0.09-0.2,0.18-0.3,0.28c-0.08,0.07-0.16,0.13-0.23,0.19
		c-0.07,0.06-0.07,0.06-0.14,0.12c-0.03,0.02-0.05,0.04-0.08,0.06c-0.09,0.07-0.18,0.15-0.27,0.22c-0.39,0.32-0.79,0.63-1.19,0.93
		c-0.14,0.1-0.27,0.2-0.4,0.31c-0.44,0.34-0.89,0.67-1.36,0.98c-0.16,0.11-0.33,0.23-0.49,0.34c-0.92,0.67-1.89,1.28-2.87,1.85
		c-0.08,0.04-0.15,0.09-0.23,0.13c-3.43,2.03-7.03,3.69-14.25,6.13c-0.04,0.01-0.08,0.02-0.13,0.04c-4.09,1.15-8.27,1.88-12.51,2.19
		c-0.08,0.01-0.08,0.01-0.17,0.01c-1.43,0.1-2.86,0.13-4.3,0.13c-0.04,0-0.09,0-0.13,0c-1.27,0-2.54,0-3.81-0.1
		c-0.13-0.01-0.25-0.02-0.38-0.03c-3.06-0.22-6.1-0.64-9.09-1.34c-0.1-0.02-0.2-0.05-0.31-0.07c-3.82-0.88-7.56-2.14-14.81-5.66
		c-0.05-0.03-0.11-0.06-0.16-0.09c-1.46-0.82-2.9-1.68-4.26-2.64c-0.12-0.08-0.23-0.16-0.35-0.24c-0.45-0.31-0.89-0.63-1.33-0.96
		c-0.1-0.07-0.19-0.15-0.29-0.22c-0.48-0.36-0.96-0.73-1.43-1.11c-0.03-0.02-0.06-0.05-0.09-0.07c-0.44-0.36-0.88-0.72-1.31-1.09
		c-0.09-0.07-0.17-0.15-0.26-0.22c-0.32-0.27-0.63-0.54-0.94-0.83c-0.14-0.13-0.28-0.26-0.42-0.38c-0.19-0.16-0.36-0.34-0.53-0.51
		c-0.13-0.13-0.25-0.25-0.39-0.36c-0.3-0.25-0.57-0.54-0.84-0.82c-0.17,0.06-0.32,0.14-0.48,0.22c-3.43,1.9-7.58,4.5-17.53,2.15
		c-0.57-0.17-1.13-0.38-1.68-0.6c-0.04-0.02-0.08-0.03-0.13-0.05c-1.98-0.81-3.81-2.23-4.68-4.22c-0.56-1.33-0.68-3.02-0.13-4.39
		c0.58-1.39,1.69-2.41,3.07-2.98c1.2-0.48,2.51-0.44,3.7,0.05c1.15,0.51,2.07,1.3,2.54,2.49c0.6,1.64,0.05,3.49-0.66,5.01
		c-0.24,0.5-0.49,0.98-0.79,1.45c-0.13,0.19-0.13,0.19-0.16,0.41c0.99,0.99,2.54,1.44,3.89,1.67c0.03,0.01,0.07,0.01,0.1,0.02
		c3.73,0.62,7.81-0.88,10.88-2.92c0.08-0.06,0.17-0.13,0.25-0.2c-0.03-0.04-0.07-0.07-0.1-0.11c-0.27-0.29-0.53-0.58-0.78-0.89
		c-0.14-0.17-0.28-0.33-0.43-0.48c-0.07-0.09-0.07-0.09-0.07-0.19c-0.03,0-0.06,0-0.1,0c0-0.03,0-0.06,0-0.1c-0.03,0-0.06,0-0.1,0
		c-0.06-0.07-0.12-0.15-0.17-0.23c-0.15-0.21-0.31-0.41-0.48-0.61c-0.3-0.35-0.58-0.72-0.86-1.09c-0.09-0.11-0.17-0.22-0.26-0.33
		c0.02-0.03,0.03-0.06,0.05-0.1c0.05,0.05,0.05,0.05,0.1,0.09c0.28,0.25,0.56,0.5,0.85,0.73c0.13,0.11,0.26,0.22,0.38,0.33
		c0.19,0.17,0.39,0.34,0.59,0.5c0.11,0.09,0.22,0.18,0.33,0.27c0.38,0.32,0.76,0.62,1.16,0.92c0.26,0.19,0.51,0.39,0.77,0.6
		c0.22-0.07,0.38-0.2,0.55-0.35c0.06-0.05,0.11-0.1,0.17-0.15c0.03-0.02,0.06-0.05,0.09-0.07c0.11-0.1,0.23-0.19,0.35-0.28
		c0.25-0.2,0.48-0.41,0.71-0.63c0.14-0.13,0.28-0.26,0.43-0.39c0.26-0.23,0.51-0.47,0.75-0.72c0.08-0.08,0.16-0.16,0.25-0.25
		c0.25-0.25,0.49-0.5,0.72-0.76c0.12-0.14,0.24-0.27,0.36-0.4c0.22-0.24,0.43-0.49,0.64-0.74c0.1-0.13,0.21-0.25,0.32-0.36
		c0.2-0.22,0.38-0.44,0.55-0.67c0.15-0.19,0.29-0.37,0.45-0.56c0.35-0.43,0.68-0.87,1.01-1.32c0.09-0.12,0.18-0.24,0.26-0.36
		c0.35-0.47,0.69-0.94,1.03-1.42c0.08-0.11,0.16-0.23,0.24-0.34c1.06-1.5,2.06-3.05,3.04-4.6c0.03-0.04,0.06-0.09,0.09-0.14
		c0.09-0.13,0.17-0.27,0.26-0.4c0.03-0.04,0.05-0.08,0.08-0.12c0.56-0.88,1.11-1.77,1.66-2.66c0.17-0.28,0.35-0.56,0.52-0.83
		c0.22-0.34,0.43-0.69,0.64-1.04c0.23-0.39,0.47-0.77,0.72-1.15c0.18-0.29,0.36-0.58,0.54-0.86c0.47-0.76,0.95-1.51,1.42-2.26
		c0.12-0.19,0.24-0.37,0.36-0.56c0.03-0.05,0.06-0.09,0.09-0.14c0.06-0.09,0.11-0.17,0.17-0.26c0.22-0.35,0.45-0.69,0.67-1.03
		c0.13-0.2,0.26-0.39,0.39-0.59c0.97-1.45,1.94-2.9,2.96-4.31c0.11-0.15,0.22-0.3,0.33-0.45c0.31-0.44,0.64-0.87,0.97-1.29
		c0.08-0.1,0.16-0.2,0.23-0.3c0.09-0.11,0.17-0.22,0.26-0.34c0.03-0.03,0.05-0.07,0.08-0.1c0.52-0.67,1.05-1.34,1.6-1.98
		c0.14-0.17,0.28-0.34,0.42-0.51c0.18-0.22,0.36-0.42,0.55-0.63c0.11-0.12,0.21-0.25,0.31-0.37c0.24-0.3,0.5-0.57,0.76-0.85
		c0.03-0.03,0.07-0.07,0.1-0.1s0.06-0.06,0.09-0.09c0.09-0.09,0.09-0.09,0.17-0.23c0.03,0,0.07,0,0.1,0
		c0.01-0.03,0.02-0.05,0.03-0.08c0.08-0.14,0.18-0.24,0.3-0.36c0.02-0.02,0.05-0.05,0.07-0.07c0.08-0.08,0.16-0.16,0.24-0.24
		c0.06-0.06,0.11-0.11,0.17-0.17c0.12-0.12,0.23-0.23,0.35-0.35c0.15-0.15,0.3-0.29,0.44-0.44c0.11-0.11,0.23-0.23,0.34-0.34
		c0.05-0.05,0.11-0.11,0.16-0.16c0.27-0.26,0.53-0.53,0.82-0.77c0.13-0.11,0.25-0.22,0.37-0.33c0.23-0.21,0.47-0.41,0.72-0.61
		c0.13-0.11,0.26-0.22,0.38-0.33c0.24-0.22,0.48-0.41,0.74-0.61c0.07-0.05,0.13-0.1,0.2-0.15c1.03-0.81,2.08-1.59,3.2-2.29
		c0.18-0.1,0.18-0.1,0.3-0.26c-0.04-0.01-0.07-0.03-0.11-0.04c-0.12-0.05-0.24-0.11-0.36-0.17c-2.89-1.43-5.97-1.85-9.15-2.05
		c-0.12-0.01-0.23-0.02-0.35-0.02c-1.35-0.09-2.71-0.09-4.06-0.09c-0.14,0-0.29,0-0.43,0c-1.76,0-3.51,0.05-5.26,0.2
		c-0.05,0-0.1,0.01-0.15,0.01c-0.8,0.07-1.59,0.15-2.38,0.26c-0.04,0.01-0.08,0.01-0.11,0.02c-0.1,0.01-0.2,0.03-0.3,0.04
		c-0.16,0.02-0.31,0.02-0.47,0.02c0.02,0.03,0.04,0.06,0.07,0.08c0.07,0.09,0.14,0.17,0.21,0.26c0.08,0.1,0.17,0.21,0.25,0.31
		c0.35,0.44,0.66,0.89,0.96,1.37c0.03,0.05,0.03,0.05,0.06,0.1c2.03,3.34,2.06,7.5,1.17,11.2c-0.44,1.75-1.11,3.43-1.92,5.04
		c-0.03,0.06-0.06,0.11-0.09,0.17c-0.32,0.63-0.64,1.26-1.03,1.85c-0.07,0.11-0.14,0.21-0.2,0.32c-0.34,0.55-0.71,1.08-1.09,1.6
		c-0.05,0.07-0.1,0.14-0.15,0.2c-0.45,0.6-0.91,1.2-1.42,1.75c-0.1,0.12-0.2,0.24-0.3,0.36c-0.3,0.37-0.65,0.7-0.99,1.04
		c-0.17,0.17-0.34,0.34-0.51,0.51c-0.31,0.31-0.62,0.62-0.96,0.91c-0.05,0.04-0.1,0.09-0.15,0.13c-0.37,0.32-0.75,0.63-1.14,0.93
		c-0.08,0.06-0.16,0.12-0.24,0.19c-3.6,2.81-8.27,4.93-12.91,4.96c-0.05,0-0.1,0-0.16,0c-0.11,0-0.22,0-0.32,0
		c-0.16,0-0.32,0-0.48,0c-0.87,0-1.72-0.08-2.56-0.3c-0.07-0.02-0.07-0.02-0.15-0.04c-1.08-0.29-2.1-0.75-3-1.4
		c-0.05-0.04-0.1-0.07-0.16-0.11c-1.09-0.8-1.93-1.84-2.55-3.04c-0.02-0.03-0.03-0.06-0.05-0.09c-1.25-2.43-1.04-5.21-0.24-7.74
		c0.67-2.06,1.64-4.01,2.85-5.8c0.03-0.04,0.05-0.08,0.08-0.12c0.5-0.74,1.03-1.45,1.59-2.14c0.04-0.04,0.07-0.09,0.11-0.13
		c0.21-0.26,0.43-0.52,0.66-0.77c0.09-0.1,0.19-0.21,0.28-0.31c0.45-0.52,0.93-1.01,1.41-1.49c0.03-0.03,0.07-0.07,0.1-0.1
		c0.19-0.19,0.39-0.37,0.59-0.55c0.15-0.13,0.29-0.26,0.43-0.4c0.25-0.23,0.5-0.45,0.76-0.66c0.12-0.1,0.24-0.2,0.36-0.3
		c0.4-0.35,0.83-0.67,1.25-0.99c0.04-0.03,0.07-0.05,0.11-0.08c0.94-0.7,1.89-1.37,2.89-1.98c0.05-0.03,0.1-0.06,0.15-0.09
		c0.82-0.51,1.66-0.99,2.51-1.45c0.12-0.07,0.24-0.13,0.36-0.2c0.54-0.3,1.1-0.56,1.66-0.82c0.05-0.02,0.09-0.04,0.14-0.07
		c0.81-0.38,1.63-0.73,2.47-1.06c0.05-0.02,0.1-0.04,0.16-0.06c1.53-0.61,3.09-1.11,4.67-1.56c0.13-0.04,0.26-0.07,0.39-0.11
		c0.1-0.03,0.2-0.06,0.3-0.08c-0.47-0.35-0.96-0.66-1.48-0.93c-0.05-0.03-0.05-0.03-0.1-0.05c-0.89-0.47-1.83-0.79-2.81-1.03
		c-0.06-0.02-0.12-0.03-0.18-0.05c-0.25,0-0.41,0.13-0.61,0.27c-0.04,0.03-0.08,0.05-0.13,0.08c-0.12,0.08-0.24,0.16-0.36,0.24
		c-0.06,0.04-0.12,0.08-0.17,0.12c-0.13,0.09-0.26,0.18-0.38,0.27c-0.09,0.07-0.18,0.13-0.28,0.2c-1.52,1.07-3.01,2.17-4.42,3.38
		c-0.18,0.15-0.36,0.29-0.56,0.42c0.08-0.19,0.21-0.35,0.34-0.51c0.02-0.03,0.05-0.06,0.07-0.09c0.21-0.26,0.42-0.51,0.64-0.76
		c0.15-0.18,0.31-0.36,0.45-0.54c0.23-0.28,0.47-0.54,0.71-0.8c0.11-0.12,0.22-0.24,0.32-0.36c0.36-0.42,0.75-0.82,1.14-1.21
		c0.13-0.13,0.25-0.27,0.37-0.41c0.17-0.19,0.35-0.37,0.53-0.54c-3.42-1.14-8.84,1.33-11.91,2.85c-0.37,0.19-0.73,0.39-1.08,0.59
		c-0.09,0.05-0.18,0.1-0.28,0.16c-0.44,0.25-0.88,0.5-1.3,0.78c-0.08,0.05-0.15,0.1-0.23,0.15c-1.25,0.82-2.43,1.71-3.53,2.73
		c-0.12,0.11-0.25,0.21-0.38,0.31c-0.13,0.13-0.24,0.24-0.34,0.39c-0.03,0-0.06,0-0.1,0c-0.02,0.05-0.03,0.1-0.05,0.15
		c-0.03,0-0.06,0-0.1,0c-0.01,0.03-0.02,0.06-0.04,0.09c-0.07,0.13-0.15,0.21-0.26,0.31c-0.21,0.21-0.4,0.42-0.58,0.65
		c-0.1,0.12-0.2,0.23-0.3,0.34c-0.43,0.48-0.81,1-1.19,1.51c-0.06-0.03-0.06-0.03-0.1,0.02c-1.62,2.19-3.03,4.57-4.17,7.04
		c-0.06-0.18-0.03-0.23,0.03-0.41c0.02-0.05,0.04-0.11,0.06-0.16c0.02-0.06,0.04-0.11,0.07-0.17c0.02-0.06,0.04-0.12,0.07-0.18
		c0.32-0.85,0.7-1.67,1.09-2.49c0.04-0.08,0.04-0.08,0.08-0.16c0.15-0.32,0.32-0.62,0.5-0.92c0.07-0.13,0.14-0.25,0.21-0.38
		c0.05-0.1,0.11-0.19,0.16-0.29c0.03-0.05,0.03-0.05,0.05-0.09c0.72-1.3,1.59-2.52,2.51-3.7c0.04-0.06,0.09-0.11,0.13-0.17
		c0.43-0.56,0.89-1.1,1.37-1.62c0.09-0.1,0.18-0.21,0.28-0.31c0.19-0.21,0.38-0.42,0.59-0.62c0.04-0.04,0.07-0.07,0.11-0.11
		c0.08-0.08,0.15-0.15,0.23-0.23c0.12-0.12,0.23-0.23,0.35-0.35c0.08-0.08,0.15-0.15,0.23-0.23c0.03-0.03,0.07-0.07,0.1-0.11
		c0.22-0.22,0.45-0.43,0.69-0.64c0.06-0.05,0.12-0.1,0.17-0.15c0.42-0.37,0.86-0.73,1.3-1.08c0.03-0.03,0.06-0.05,0.1-0.08
		c1.14-0.89,2.34-1.68,3.59-2.38c0.04-0.02,0.09-0.05,0.13-0.07c3.07-1.73,6.53-2.79,10.06-2.88c0.08,0,0.08,0,0.16,0
		c0.15,0,0.29,0,0.44,0c0.04,0,0.07,0,0.11,0c0.13,0,0.26,0.01,0.4,0.01c0.05,0,0.09,0,0.14,0c0.3,0.01,0.59,0.05,0.88,0.11
		c0.74,0.18,0.74,0.18,1.44-0.01c0.17-0.15,0.32-0.32,0.46-0.51c0.11-0.14,0.23-0.23,0.36-0.33c0.17-0.14,0.34-0.28,0.5-0.42
		c0.21-0.19,0.42-0.37,0.64-0.54c0.11-0.09,0.22-0.18,0.33-0.27c0.45-0.37,0.9-0.72,1.37-1.06c0.19-0.14,0.37-0.28,0.56-0.42
		c0.73-0.56,1.48-1.07,2.25-1.58c0.12-0.08,0.24-0.16,0.35-0.24c0.05-0.03,0.05-0.03,0.1-0.07c0.08-0.06,0.16-0.11,0.25-0.17
		c0.42-0.28,0.85-0.55,1.29-0.81c0.08-0.05,0.08-0.05,0.16-0.1c0.16-0.1,0.33-0.2,0.49-0.29c0.05-0.03,0.1-0.06,0.15-0.09
		c0.71-0.42,1.44-0.82,2.17-1.21c0.12-0.07,0.25-0.13,0.37-0.2c0.57-0.31,1.15-0.59,1.74-0.86c0.07-0.03,0.13-0.06,0.2-0.09
		c1.69-0.79,3.41-1.49,5.17-2.12c0.03-0.01,0.07-0.02,0.11-0.04c3.25-1.16,6.61-2.01,10.01-2.55c0.12-0.02,0.24-0.04,0.36-0.06
		c1.75-0.28,3.52-0.47,5.29-0.59c0.04,0,0.09-0.01,0.13-0.01c0.29-0.02,0.59-0.04,0.88-0.05c0.04,0,0.09,0,0.13-0.01
		C74.06,24.73,75.02,24.73,75.98,24.73z M71.42,30.79c-0.13,0.01-0.26,0.02-0.39,0.02c-5.05,0.3-10.08,1.11-26.51,6.68
		c-0.05,0.02-0.1,0.05-0.16,0.07c-0.53,0.25-1.05,0.51-1.56,0.78c-0.18,0.1-0.36,0.19-0.54,0.28c-0.96,0.49-1.89,1.01-2.81,1.57
		c0.07,0.13,0.12,0.13,0.26,0.18c0.07,0.02,0.07,0.02,0.13,0.05c0.05,0.02,0.09,0.03,0.14,0.05c1.37,0.48,2.86,1.13,3.97,2.07
		c0.04,0.03,0.07,0.06,0.11,0.09c0.07,0.06,0.13,0.12,0.2,0.18c0.15,0.13,0.25,0.19,0.46,0.19c0.15-0.02,0.3-0.05,0.44-0.08
		c0.17-0.03,0.34-0.06,0.51-0.09c0.07-0.01,0.15-0.02,0.22-0.04c1.67-0.27,3.35-0.42,5.03-0.48c0.09,0,0.19-0.01,0.28-0.01
		c1.11-0.05,2.23-0.05,3.34-0.05c0.2,0,0.41,0,0.61,0c1.86-0.01,3.73,0.04,5.58,0.2c0.08,0.01,0.08,0.01,0.16,0.01
		c3.4,0.28,7.21,0.69,10.33,2.16c0.22,0.1,0.37,0.11,0.6,0.05c0.14-0.06,0.26-0.13,0.39-0.2c0.95-0.52,1.94-0.97,2.95-1.37
		c0.03-0.01,0.06-0.03,0.1-0.04c0.52-0.21,0.52-0.21,0.7-0.21c-0.02,0.02-0.04,0.03-0.07,0.05c-1.06,0.75-2.12,1.53-3.03,2.46
		c0.05,0.03,0.09,0.05,0.14,0.08c1.53,0.89,2.96,1.84,4.24,3.07c0.03,0.02,0.05,0.05,0.08,0.07c0.35,0.33,0.66,0.68,0.96,1.06
		c0.05,0.07,0.05,0.07,0.11,0.14c1.47,1.92,2.21,4.21,1.92,6.64c-0.3,2.07-1.23,3.96-2.48,5.62c-0.02,0.03-0.04,0.05-0.06,0.08
		c-0.62,0.83-1.32,1.59-2.04,2.32c-0.03,0.03-0.07,0.07-0.1,0.1c-0.2,0.2-0.4,0.38-0.61,0.56c-0.11,0.09-0.21,0.19-0.32,0.28
		c-0.25,0.22-0.51,0.43-0.77,0.63c-0.12,0.09-0.24,0.19-0.35,0.28c-2.43,1.99-5.22,3.29-8.23,4.14c-0.04,0.01-0.09,0.02-0.13,0.04
		c-0.21,0.06-0.42,0.12-0.63,0.18c-0.08,0.02-0.15,0.04-0.23,0.06c-0.03,0.01-0.07,0.02-0.11,0.03c-0.18,0.05-0.24,0.07-0.35,0.23
		c0.03,0.01,0.07,0.03,0.1,0.04c1,0.39,1.86,1.11,2.62,1.85c0.07,0.07,0.14,0.14,0.22,0.21c0.55,0.53,0.99,1.15,1.39,1.79
		c0.02,0.03,0.04,0.06,0.06,0.09c0.74,1.2,1.01,2.54,1.07,3.94c0,0.05,0,0.05,0.01,0.11c0.01,0.24,0.01,0.48-0.01,0.73
		c0,0.05,0,0.1-0.01,0.15c-0.12,2.58-0.74,5.11-1.31,7.62c-0.31,1.34-0.31,1.34-0.57,2.68c-0.01,0.05-0.01,0.05-0.02,0.11
		c-0.13,0.73-0.23,1.45-0.22,2.2c0,0.06,0,0.12,0,0.19c0,0.53,0.05,1.1,0.41,1.52c0.56,0.52,1.2,0.52,1.93,0.5
		c0.9-0.06,1.77-0.48,2.55-0.89c0.03-0.02,0.07-0.03,0.1-0.05c0.96-0.51,1.8-1.18,2.6-1.92c0.14-0.12,0.28-0.25,0.42-0.37
		c0.08-0.07,0.16-0.15,0.23-0.22c-0.06-0.15-0.12-0.3-0.2-0.44c-0.87-1.55-1.15-3.34-1.14-5.1c0-0.05,0-0.09,0-0.14
		c0-0.71,0.03-1.4,0.16-2.1c0.01-0.08,0.01-0.08,0.03-0.15c0.44-2.23,1.44-4.26,2.86-6.02c0.06-0.07,0.11-0.14,0.17-0.21
		c0.64-0.8,1.37-1.59,2.17-2.22c0.12-0.1,0.24-0.2,0.35-0.3c0.42-0.37,0.89-0.68,1.36-0.99c0.03-0.02,0.06-0.04,0.1-0.06
		c0.66-0.44,1.35-0.82,2.06-1.17c0.07-0.03,0.14-0.07,0.21-0.1c2.09-1.03,4.52-1.57,6.84-1.72c0.09-0.01,0.09-0.01,0.18-0.01
		c0.59-0.04,1.18-0.05,1.77-0.05c0.05,0,0.1,0,0.15,0c0.86,0,1.71,0.03,2.57,0.11c0.03,0,0.07,0.01,0.1,0.01
		c0.88,0.08,1.75,0.2,2.61,0.34c0.04,0.01,0.08,0.01,0.12,0.02c0.7,0.11,1.4,0.23,2.06,0.48c0.06,0.02,0.06,0.02,0.12,0.04
		c0.72,0.28,1.37,0.66,1.98,1.13c0.04,0.03,0.09,0.07,0.13,0.1c2.17,1.69,3.57,4.24,3.92,6.96c0.16,1.48-0.03,3.05-0.66,4.41
		c-0.01,0.03-0.03,0.06-0.04,0.09c-0.46,1.03-1.16,1.97-1.92,2.8c-0.07,0.08-0.14,0.16-0.21,0.23c-1.75,2.01-4.26,3.2-6.84,3.72
		c-0.06,0.01-0.06,0.01-0.11,0.02c-3.92,0.77-8.68-0.28-12.34-1.79c0.04,0.01,0.08,0.02,0.12,0.03c1.39,0.37,2.78,0.68,4.21,0.85
		c0.05,0.01,0.09,0.01,0.14,0.02c3.77,0.47,7.97-0.22,11.08-2.48c0.03-0.02,0.06-0.04,0.09-0.07c0.34-0.25,0.66-0.52,0.97-0.81
		c0.1-0.09,0.2-0.18,0.3-0.26c0.19-0.16,0.35-0.35,0.5-0.53c0.04-0.04,0.08-0.09,0.11-0.13c0.32-0.38,0.61-0.77,0.87-1.2
		c0.02-0.03,0.04-0.06,0.06-0.09c0.94-1.52,1.36-3.43,0.97-5.18c-0.42-1.69-1.5-3.01-2.96-3.93c-1.67-0.99-3.57-1.48-5.5-1.62
		c-0.08-0.01-0.08-0.01-0.17-0.01c-0.5-0.03-0.99-0.05-1.49-0.05c-0.04,0-0.08,0-0.12,0c-4.72,0.01-9.75,1.13-13.32,4.38
		c-0.1,0.09-0.21,0.19-0.31,0.28c-0.35,0.31-0.68,0.65-0.98,1.01c-0.02,0.03-0.04,0.05-0.06,0.08c-1.56,1.86-2.56,4.14-2.56,6.58
		c0,0.04,0,0.07,0,0.11c0,0.58,0.03,1.13,0.16,1.69c0.01,0.06,0.01,0.06,0.02,0.11c0.15,0.65,0.34,1.39,0.71,1.95
		c0.14-0.07,0.25-0.14,0.36-0.24c0.03-0.03,0.06-0.06,0.09-0.09s0.06-0.06,0.1-0.09c0.03-0.03,0.07-0.06,0.1-0.09
		c0.2-0.19,0.4-0.38,0.59-0.58c0.08-0.08,0.17-0.16,0.26-0.24c0.23-0.2,0.45-0.42,0.66-0.64c0.12-0.12,0.23-0.23,0.36-0.33
		c0.03-0.02,0.05-0.04,0.08-0.06c0-0.03,0-0.06,0-0.1c0.03-0.01,0.06-0.03,0.09-0.04c0.11-0.06,0.17-0.11,0.26-0.2
		c0.03-0.03,0.06-0.06,0.08-0.08c0.04-0.04,0.04-0.04,0.09-0.09c0.03-0.03,0.06-0.06,0.09-0.09c0.1-0.1,0.19-0.19,0.29-0.29
		c0.07-0.07,0.13-0.13,0.2-0.2c0.16-0.16,0.32-0.32,0.48-0.48c-0.49,1.54-1.61,3.02-2.61,4.28c-0.07,0.09-0.14,0.18-0.22,0.27
		c-0.05,0.06-0.09,0.12-0.14,0.18c-0.14,0.17-0.26,0.35-0.38,0.53c0.04,0.06,0.08,0.12,0.12,0.17c0.02,0.03,0.04,0.06,0.07,0.1
		c0.02,0.02,0.04,0.05,0.06,0.08c0.03,0,0.06,0,0.1,0c0.01,0.04,0.03,0.07,0.04,0.11c0.06,0.14,0.13,0.22,0.23,0.33
		c0.03,0.03,0.07,0.07,0.11,0.11s0.07,0.07,0.11,0.11c0.06,0.06,0.06,0.06,0.11,0.11c0.28,0.27,0.56,0.52,0.87,0.76
		c0.04,0.03,0.09,0.07,0.13,0.1c2.88,2.24,6.63,3.09,10.2,3.39c0.05,0,0.1,0.01,0.15,0.01c0.63,0.05,1.26,0.05,1.89,0.05
		c0.06,0,0.13,0,0.19,0c0.97,0,1.93-0.03,2.9-0.16c0.07-0.01,0.13-0.02,0.2-0.03c3.92-0.52,7.7-2.06,10.88-4.4
		c0.05-0.03,0.09-0.07,0.14-0.1c0.5-0.36,0.98-0.73,1.45-1.12c0.09-0.07,0.17-0.14,0.26-0.21c0.31-0.25,0.61-0.52,0.9-0.79
		c0.21-0.2,0.43-0.39,0.65-0.58c0.04-0.03,0.07-0.06,0.11-0.09c0.03-0.03,0.07-0.06,0.1-0.08c0.08-0.07,0.08-0.07,0.07-0.17
		c0.04-0.02,0.04-0.02,0.08-0.03c0.14-0.08,0.24-0.18,0.36-0.3c0.02-0.02,0.05-0.05,0.07-0.07c0.05-0.05,0.1-0.1,0.15-0.15
		c0.07-0.07,0.15-0.15,0.22-0.22c0.23-0.23,0.46-0.47,0.67-0.72c0.14-0.16,0.29-0.32,0.44-0.48c0.25-0.27,0.49-0.53,0.72-0.82
		c0.1-0.13,0.21-0.25,0.32-0.37c0.23-0.25,0.45-0.52,0.66-0.79c0.05-0.06,0.1-0.12,0.15-0.18c0.53-0.65,1.04-1.31,1.53-1.99
		c0.1-0.14,0.2-0.28,0.31-0.42c1.24-1.67,2.38-3.4,3.5-5.16c0.08-0.12,0.15-0.24,0.23-0.36c0.35-0.55,0.69-1.11,1.03-1.67
		c0.1-0.17,0.21-0.34,0.31-0.51c0.33-0.55,0.66-1.09,0.99-1.64c0.1-0.17,0.21-0.35,0.31-0.52c0.36-0.61,0.72-1.21,1.07-1.82
		s0.71-1.21,1.07-1.81c-0.2,0-0.28,0.1-0.42,0.23c-0.35,0.31-0.72,0.59-1.09,0.87c-0.11,0.08-0.21,0.16-0.31,0.24
		c-0.51,0.39-1.03,0.76-1.57,1.12c-0.03,0.02-0.06,0.04-0.09,0.06c-0.6,0.4-1.21,0.76-1.83,1.12c-0.04,0.02-0.08,0.05-0.12,0.07
		c-2.84,1.67-6.98,3.22-10.31,2.39c-0.05-0.01-0.09-0.02-0.14-0.03c-1.3-0.33-2.46-0.87-3.46-1.79c-0.04-0.04-0.09-0.08-0.13-0.12
		c-1.45-1.38-2-3.4-2.08-5.34c0-0.05,0-0.09-0.01-0.14c-0.01-0.4,0.03-0.79,0.07-1.19c0-0.05,0.01-0.09,0.01-0.14
		c0-0.04,0.01-0.08,0.01-0.13c0.01-0.14,0.01-0.28,0.01-0.42c-0.05-0.01-0.1-0.01-0.15-0.02c-4.25-0.5-8.6-1.49-11.83-4.5
		c-0.1-0.09-0.2-0.18-0.31-0.27c-0.52-0.46-0.97-1.01-1.38-1.56c-0.02-0.03-0.04-0.05-0.06-0.08c-1.56-2.06-1.97-4.68-1.63-7.2
		c0.02-0.15,0.05-0.3,0.07-0.44c0.01-0.08,0.01-0.08,0.03-0.16c0.34-1.91,1.04-3.86,2.24-5.4c0.05-0.06,0.05-0.06,0.1-0.13
		c0.48-0.62,1.06-1.16,1.68-1.65c0.05-0.04,0.1-0.09,0.16-0.13c0.76-0.63,1.59-1.18,2.46-1.64c0.1-0.05,0.19-0.11,0.29-0.16
		c2.25-1.23,4.79-1.86,7.33-2.06c0.04,0,0.09-0.01,0.13-0.01c3.87-0.29,7.82,0.57,11.34,2.18c0.05,0.02,0.11,0.05,0.16,0.07
		c0.76,0.35,1.48,0.73,2.2,1.16c0.04,0.02,0.08,0.05,0.12,0.07c0.85,0.5,1.66,1.06,2.44,1.67c0.09,0.07,0.19,0.15,0.28,0.22
		c0.43,0.33,0.82,0.68,1.21,1.05c0.03,0.03,0.07,0.06,0.1,0.1c0.04,0.04,0.04,0.04,0.09,0.08c0.13,0.07,0.19,0.04,0.34,0
		c0.08-0.03,0.17-0.07,0.25-0.11c0.05-0.02,0.09-0.04,0.14-0.07c0.05-0.02,0.09-0.05,0.14-0.07s0.1-0.05,0.15-0.07
		c0.12-0.06,0.24-0.11,0.36-0.17c-0.2-0.21-0.41-0.39-0.63-0.57c-0.04-0.03-0.07-0.06-0.11-0.09c-0.11-0.09-0.22-0.18-0.34-0.27
		c-0.03-0.03-0.06-0.05-0.1-0.08c-0.49-0.4-1-0.78-1.51-1.16c-0.11-0.08-0.21-0.16-0.32-0.24c-2.5-1.9-5.2-3.53-7.97-5.01
		c-0.06-0.03-0.06-0.03-0.12-0.06c-1.31-0.71-2.66-1.36-4.02-1.96c-0.09-0.04-0.18-0.08-0.28-0.12c-1.74-0.78-3.53-1.46-5.33-2.08
		c-0.04-0.01-0.07-0.03-0.11-0.04c-4.63-1.6-9.44-2.72-19.82-3.88c-0.05,0-0.1-0.01-0.15-0.01c-1.46-0.09-2.91-0.11-4.37-0.11
		c-0.07,0-0.07,0-0.13,0C74.2,30.69,72.81,30.7,71.42,30.79z M92.65,45.46c-0.04,0.03-0.07,0.07-0.11,0.11
		c-0.27,0.26-0.5,0.54-0.73,0.83c-0.04,0.05-0.08,0.1-0.12,0.15c-1.03,1.3-1.81,2.92-2,4.58c-0.01,0.05-0.01,0.09-0.02,0.14
		c-0.21,2.11,0.44,4.15,1.74,5.81c0.14,0.17,0.29,0.33,0.44,0.49c0.06,0.07,0.12,0.14,0.18,0.21c0.24,0.28,0.24,0.28,0.51,0.53
		c0.03,0,0.06,0,0.1,0c0,0.03,0,0.06,0,0.1c0.15,0.14,0.3,0.26,0.46,0.38c0.08,0.06,0.15,0.12,0.23,0.18
		c0.63,0.5,1.31,0.92,2.01,1.3c0.11,0.06,0.22,0.12,0.33,0.18c1.93,1.06,4.11,1.69,6.25,2.16c0.04,0.01,0.08,0.02,0.12,0.03
		c0.46,0.1,0.91,0.18,1.38,0.2c0.02-0.05,0.04-0.1,0.07-0.15c0.56-1.22,1.26-2.37,2-3.49c0.02-0.03,0.04-0.06,0.06-0.09
		c0.31-0.47,0.62-0.92,0.95-1.37c0.07-0.1,0.15-0.21,0.22-0.31c1.05-1.5,2.12-2.95,3.5-4.17c0.05-0.05,0.1-0.09,0.15-0.14
		c0.27-0.25,0.55-0.5,0.83-0.73c0.11-0.09,0.22-0.18,0.33-0.27c0.45-0.37,0.92-0.72,1.39-1.06c0.09-0.06,0.18-0.13,0.27-0.19
		c1.71-1.24,3.55-2.38,5.44-3.32c-0.07-0.15-0.15-0.25-0.27-0.37c-0.05-0.05-0.05-0.05-0.1-0.1c-0.04-0.03-0.07-0.07-0.11-0.1
		c-0.04-0.04-0.08-0.07-0.11-0.11C114.58,43.28,100.98,37.59,92.65,45.46z M128.83,45.31c-0.03,0.01-0.07,0.03-0.1,0.04
		c-1.76,0.73-3.49,1.57-5.17,2.47c0.06,0.17,0.13,0.31,0.24,0.45c0.03,0.04,0.06,0.08,0.08,0.12c0.04,0.06,0.04,0.06,0.09,0.12
		c0.32,0.45,0.62,0.91,0.91,1.37c0.08,0.13,0.17,0.26,0.26,0.39c-0.17-0.14-0.32-0.27-0.46-0.44c-0.1-0.12-0.18-0.2-0.3-0.3
		c-0.29-0.25-0.55-0.53-0.82-0.8c-0.07-0.07-0.13-0.14-0.2-0.21c-0.06-0.06-0.06-0.06-0.12-0.12c-0.12-0.11-0.2-0.17-0.36-0.2
		c-0.15,0.05-0.15,0.05-0.29,0.13c-0.08,0.05-0.08,0.05-0.17,0.09c-0.03,0.02-0.06,0.03-0.09,0.05c-0.09,0.05-0.17,0.1-0.26,0.15
		c-0.28,0.14-0.28,0.14-0.48,0.36c0,0.13,0.03,0.18,0.1,0.28c0.02,0.04,0.05,0.07,0.07,0.11c0.04,0.06,0.04,0.06,0.08,0.12
		c0.06,0.08,0.11,0.17,0.16,0.25c0.03,0.04,0.06,0.09,0.09,0.13c0.61,0.96,1.16,1.97,1.66,2.99c0.05,0.1,0.1,0.19,0.15,0.29
		c0.22,0.44,0.43,0.88,0.64,1.33c-0.02-0.02-0.04-0.05-0.05-0.07c-0.81-1.1-1.62-2.18-2.48-3.24c-0.06-0.08-0.13-0.15-0.19-0.23
		c-0.25-0.31-0.52-0.62-0.78-0.92c-0.13-0.15-0.26-0.3-0.38-0.46c-0.23,0.07-0.4,0.16-0.59,0.29c-0.03,0.02-0.06,0.04-0.08,0.06
		c-0.09,0.06-0.18,0.12-0.27,0.18c-0.06,0.04-0.12,0.09-0.19,0.13c-0.7,0.48-1.39,0.98-2.07,1.51c-0.06,0.04-0.11,0.09-0.17,0.13
		c-0.38,0.3-0.76,0.61-1.12,0.93c-0.12,0.1-0.24,0.21-0.36,0.31c-0.11,0.1-0.23,0.19-0.34,0.29c-0.07,0.06-0.15,0.13-0.22,0.19
		c-0.04,0.04-0.08,0.07-0.12,0.11c-0.05,0.05-0.05,0.05-0.11,0.09c-0.08,0.07-0.08,0.07-0.07,0.17c-0.03,0.01-0.05,0.02-0.08,0.03
		c-0.15,0.08-0.26,0.2-0.38,0.32c-0.03,0.03-0.05,0.05-0.08,0.08c-0.05,0.05-0.11,0.11-0.16,0.16c-0.08,0.08-0.16,0.16-0.24,0.24
		c-0.25,0.25-0.49,0.5-0.71,0.76c-0.1,0.12-0.21,0.23-0.31,0.34c-0.24,0.27-0.47,0.54-0.7,0.82c-0.02,0.03-0.04,0.05-0.06,0.08
		c-0.96,1.2-1.81,2.46-2.55,3.81c-0.04,0.07-0.04,0.07-0.08,0.14c-0.71,1.16-0.71,1.16-1.06,2.42c3.98,0.12,8.07-0.81,22.44-6.49
		c0.23-0.13,0.46-0.25,0.69-0.37c0.65-0.34,1.29-0.72,1.92-1.1c0.03-0.02,0.06-0.03,0.09-0.05c0.69-0.42,1.38-0.84,2.03-1.33
		c0.04-0.03,0.07-0.05,0.11-0.08c0.47-0.35,0.92-0.72,1.34-1.12c0.08-0.08,0.16-0.15,0.25-0.23c0.26-0.23,0.51-0.47,0.73-0.73
		c0.06-0.07,0.11-0.13,0.17-0.19c0.67-0.71,1.2-1.52,1.68-2.36c0.02-0.03,0.04-0.06,0.06-0.1c0.59-1.02,1.25-2.47,1.05-3.68
		c-0.07-0.26-0.21-0.48-0.37-0.7c-0.02-0.03-0.04-0.06-0.06-0.09c-0.59-0.77-1.68-1.1-2.6-1.22
		C134.92,42.93,131.7,44.12,128.83,45.31z M36.72,47.36c-0.41,0.18-0.82,0.36-1.24,0.54c-0.05,0.02-0.05,0.02-0.09,0.04
		c-0.31,0.14-0.63,0.27-0.94,0.4c-2.4,1-4.69,2.21-6.82,3.71c-0.06,0.04-0.11,0.08-0.17,0.12c-0.67,0.47-1.32,0.98-1.94,1.52
		c-0.15,0.13-0.3,0.25-0.45,0.37c-0.19,0.15-0.36,0.31-0.53,0.49c-0.07,0.06-0.07,0.06-0.16,0.11c0,0.03,0,0.06,0,0.1
		c-0.03,0.01-0.06,0.02-0.08,0.04c-0.14,0.08-0.23,0.17-0.35,0.28c-0.04,0.04-0.09,0.09-0.13,0.13c-0.02,0.02-0.05,0.05-0.07,0.07
		c-0.07,0.07-0.14,0.14-0.21,0.21c-0.23,0.23-0.45,0.46-0.66,0.71c-0.1,0.12-0.21,0.23-0.32,0.35c-0.19,0.21-0.36,0.41-0.54,0.63
		c-0.08,0.1-0.16,0.2-0.24,0.3c-2.23,2.72-3.83,6.04-4.3,9.53c-0.01,0.06-0.01,0.06-0.02,0.11c-0.05,0.44-0.05,0.89-0.05,1.33
		c0,0.04,0,0.09,0,0.13c0,0.65,0.02,1.28,0.16,1.92c0.01,0.04,0.02,0.08,0.03,0.13c0.35,1.63,1.19,3.22,2.6,4.18
		c1.71,1.1,3.79,1.24,5.75,0.83c3.02-0.66,5.75-2.26,8.21-4.1c0.03-0.02,0.06-0.04,0.09-0.07c0.36-0.27,0.7-0.55,1.04-0.84
		c0.14-0.12,0.29-0.24,0.44-0.36c0.21-0.17,0.4-0.35,0.59-0.54c0.09-0.09,0.19-0.17,0.28-0.26c0.28-0.24,0.54-0.51,0.8-0.77
		c0.09-0.09,0.18-0.18,0.27-0.27c0.53-0.49,0.53-0.49,0.93-1.08c0.03,0,0.06,0,0.1,0c0.07-0.08,0.14-0.16,0.2-0.24
		c0.15-0.18,0.3-0.36,0.46-0.54c0.22-0.24,0.43-0.5,0.63-0.76c0.12-0.15,0.24-0.3,0.35-0.45c1.02-1.26,1.94-2.61,2.74-4.02
		c0.02-0.03,0.04-0.07,0.06-0.1c0.35-0.6,0.66-1.21,0.98-1.82c0.02-0.05,0.05-0.09,0.07-0.14c1.71-3.39,2.73-7.47,1.54-11.19
		c-0.38-1.13-1-2.15-1.76-3.06c-0.02-0.03-0.05-0.06-0.07-0.08c-0.06-0.07-0.12-0.13-0.18-0.19C41.48,44.77,38.76,46.47,36.72,47.36
		z"/>
	<path class="st2" d="M91.69,121.53c0.24,0.19,0.39,0.35,0.49,0.64c-0.73,0.14-0.73,0.14-0.98,0.1c-0.11-0.14-0.11-0.14-0.2-0.3
		c-0.4-0.4-1.05-0.5-1.59-0.51c-0.05,0-0.1,0-0.14,0c-0.05,0-0.1,0-0.15,0c-0.62,0.01-1.17,0.11-1.65,0.54
		c-0.08,0.08-0.14,0.17-0.21,0.26c-0.03,0.05-0.03,0.05-0.06,0.09c-0.2,0.37-0.2,0.87-0.1,1.27c0.05,0.11,0.1,0.21,0.16,0.31
		c0.02,0.03,0.04,0.06,0.06,0.09c0.29,0.4,0.81,0.58,1.28,0.67c0.75,0.09,1.59,0.09,2.25-0.32c0.03,0,0.06,0,0.1,0
		c0.02-0.07,0.02-0.07,0.05-0.15c0.03,0,0.06,0,0.1,0c0.09-0.25,0.13-0.48,0.15-0.74c-0.04,0.01-0.08,0.02-0.12,0.02
		c-0.19,0.03-0.38,0.03-0.57,0.03c-0.04,0-0.07,0-0.11,0c-0.12,0-0.23,0-0.35,0c-0.08,0-0.16,0-0.24,0c-0.19,0-0.39,0-0.58,0
		c0-0.16,0-0.32,0-0.49c0.99,0,1.98,0,3,0c0,0.71,0,1.43,0,2.16c-0.21,0-0.42,0-0.64,0c-0.08-0.15-0.16-0.29-0.25-0.44
		c-0.13,0.04-0.27,0.09-0.4,0.14c-1.14,0.51-2.63,0.42-3.78-0.02c-0.24-0.11-0.44-0.25-0.65-0.42c-0.05-0.03-0.05-0.03-0.1-0.07
		c-0.32-0.23-0.47-0.6-0.59-0.97c-0.04-0.55,0.03-0.99,0.4-1.42C87.51,120.69,90.19,120.58,91.69,121.53z"/>
	<path class="st2" d="M5.01,121.04c0.85,0,0.85,0,1.72-0.01c0.18,0,0.36,0,0.54,0c0.22,0,0.22,0,0.33,0c0.07,0,0.14,0,0.21,0
		c0.93-0.01,1.92,0.02,2.64,0.67c0.17,0.18,0.22,0.33,0.22,0.57c-0.12,0.38-0.35,0.58-0.69,0.79c-0.18,0.06-0.18,0.06-0.36,0.11
		c-0.06,0.02-0.12,0.03-0.19,0.05c-0.05,0.01-0.09,0.02-0.14,0.04c0,0.17,0.15,0.28,0.26,0.41c0.21,0.24,0.42,0.49,0.62,0.74
		c0.02,0.03,0.04,0.05,0.06,0.08c0.16,0.21,0.32,0.42,0.48,0.64c-0.89,0.11-0.89,0.11-1.18-0.06c-0.18-0.15-0.3-0.34-0.43-0.53
		c-0.11-0.16-0.23-0.31-0.36-0.47c-0.06-0.08-0.12-0.16-0.18-0.23c-0.02-0.03-0.05-0.06-0.07-0.09c-0.03-0.05-0.06-0.1-0.1-0.15
		c-0.08-0.1-0.13-0.14-0.26-0.17c-0.14-0.01-0.28-0.01-0.42-0.01c-0.05,0-0.1,0-0.15,0c-0.16,0-0.32,0-0.49,0c-0.11,0-0.22,0-0.33,0
		c-0.27,0-0.54,0-0.81,0c0,0.57,0,1.14,0,1.72c-0.31,0-0.62,0-0.94,0C5.01,123.77,5.01,122.43,5.01,121.04z M5.95,121.53
		c0,0.47,0,0.94,0,1.43c0.32,0,0.65,0,0.97,0.01c0.11,0,0.22,0,0.33,0c1.14,0.05,1.14,0.05,2.19-0.35c0.16-0.17,0.2-0.24,0.2-0.47
		c-0.06-0.21-0.12-0.28-0.3-0.42c-0.31-0.14-0.63-0.2-0.97-0.2c-0.08,0-0.08,0-0.16,0c-0.06,0-0.12,0-0.18,0c-0.06,0-0.12,0-0.18,0
		c-0.19,0-0.38,0-0.57,0c-0.13,0-0.26,0-0.39,0C6.58,121.53,6.26,121.53,5.95,121.53z"/>
	<path class="st2" d="M100.01,121.04c0.85,0,0.85,0,1.72-0.01c0.18,0,0.36,0,0.54,0c0.22,0,0.22,0,0.33,0c0.07,0,0.14,0,0.21,0
		c0.93-0.01,1.91,0.02,2.64,0.67c0.15,0.16,0.21,0.31,0.22,0.52c-0.02,0.24-0.12,0.41-0.29,0.58c-0.33,0.27-0.73,0.4-1.15,0.46
		c0.28,0.37,0.57,0.73,0.88,1.08c0.6,0.68,0.6,0.68,0.6,0.79c-0.88,0.13-0.88,0.13-1.19-0.07c-0.2-0.19-0.35-0.42-0.5-0.65
		c-0.11-0.17-0.25-0.32-0.38-0.47c-0.23-0.26-0.23-0.26-0.3-0.38c-0.07-0.1-0.07-0.1-0.19-0.12c-0.04,0-0.08,0-0.12,0
		c-0.05,0-0.09,0-0.14,0s-0.1,0-0.15,0s-0.1,0-0.15,0c-0.16,0-0.33,0-0.49,0c-0.11,0-0.22,0-0.33,0c-0.27,0-0.54-0.01-0.82-0.01
		c0,0.57,0,1.14,0,1.72c-0.31,0-0.62,0-0.94,0C100.01,123.77,100.01,122.43,100.01,121.04z M100.94,121.53c0,0.47,0,0.94,0,1.43
		c0.33,0,0.67,0,1,0.01c0.11,0,0.23,0,0.34,0c0.16,0,0.33,0,0.49,0c0.05,0,0.1,0,0.15,0c0.59,0,1.19-0.06,1.65-0.47
		c0.09-0.17,0.1-0.28,0.07-0.47c-0.19-0.27-0.5-0.41-0.83-0.47c-0.15-0.02-0.29-0.03-0.44-0.03c-0.05,0-0.11,0-0.16,0
		c-0.06,0-0.12,0-0.17,0c-0.06,0-0.12,0-0.18,0c-0.19,0-0.38,0-0.57,0c-0.13,0-0.26,0-0.39,0
		C101.57,121.53,101.26,121.53,100.94,121.53z"/>
	<path class="st2" d="M115.7,120.98c0.1,0,0.2,0,0.3,0c0.93,0,1.87,0.21,2.58,0.86c0.36,0.39,0.54,0.81,0.54,1.34
		c-0.03,0.44-0.21,0.74-0.5,1.07c-0.03,0.03-0.05,0.06-0.08,0.09c-0.59,0.63-1.48,0.86-2.31,0.9c-1.07,0.04-2.14-0.06-3.02-0.74
		c-0.35-0.33-0.61-0.7-0.65-1.18c-0.01-0.54,0.06-0.93,0.41-1.34c0.21-0.21,0.42-0.38,0.68-0.53c0.03-0.02,0.06-0.04,0.09-0.05
		C114.34,121.04,115.03,120.98,115.7,120.98z M113.94,122.12c-0.31,0.37-0.38,0.78-0.34,1.26c0.07,0.41,0.32,0.74,0.64,1
		c0.66,0.46,1.47,0.48,2.25,0.38c0.51-0.1,0.96-0.35,1.29-0.76c0.25-0.42,0.31-0.85,0.25-1.33c-0.12-0.42-0.36-0.72-0.74-0.93
		C116.23,121.22,114.78,121.22,113.94,122.12z"/>
	<path class="st2" d="M139.58,121.04c0.52,0,1.04,0,1.57-0.01c0.16,0,0.32,0,0.49,0c2.32-0.01,2.32-0.01,3.06,0.6
		c0.19,0.2,0.3,0.35,0.31,0.63c0,0.32-0.14,0.49-0.36,0.7c-0.61,0.5-1.52,0.55-2.28,0.54c-0.05,0-0.1,0-0.15,0
		c-0.16,0-0.32,0-0.48,0c-0.11,0-0.22,0-0.33,0c-0.27,0-0.53,0-0.8,0c0,0.54,0,1.07,0,1.62c-0.34,0-0.68,0-1.03,0
		C139.58,123.77,139.58,122.43,139.58,121.04z M140.61,121.48c0,0.52,0,1.04,0,1.57c0.28,0,0.57,0,0.85,0.01c0.1,0,0.19,0,0.29,0
		c1.09,0.05,1.09,0.05,2.04-0.37c0.13-0.15,0.22-0.27,0.22-0.47c-0.09-0.29-0.29-0.44-0.54-0.59c-0.41-0.16-0.89-0.16-1.32-0.15
		c-0.07,0-0.07,0-0.13,0c-0.14,0-0.28,0-0.42,0c-0.09,0-0.19,0-0.29,0C141.08,121.48,140.84,121.48,140.61,121.48z"/>
	<path class="st2" d="M126.48,121.03c0.04,0,0.08,0,0.12,0s0.09,0,0.13,0c0.07,0,0.07,0,0.14,0c0.05,0,0.09,0,0.14,0
		c0.12,0,0.23,0,0.35,0c0,0.06,0,0.06,0,0.11c0,0.35,0.01,0.7,0.01,1.05c0,0.18,0,0.36,0,0.54c0,0.17,0,0.35,0.01,0.52
		c0,0.1,0,0.2,0,0.29c0,0.09,0,0.09,0,0.18c0,0.05,0,0.11,0,0.16c0.03,0.23,0.11,0.39,0.28,0.55c0.43,0.26,1,0.26,1.49,0.26
		c0.08,0,0.08,0,0.17,0c0.47,0,1.01-0.04,1.38-0.36c0.2-0.26,0.25-0.45,0.26-0.77c0-0.06,0-0.11,0-0.17s0-0.12,0-0.18
		c0-0.09,0-0.09,0-0.19c0-0.16,0-0.33,0.01-0.49c0-0.17,0-0.34,0.01-0.5c0.01-0.33,0.01-0.66,0.02-0.99c0.13,0,0.26,0,0.39,0
		c0.04,0,0.07,0,0.11,0c0.1,0,0.19,0,0.29,0c0.08,0.08,0.06,0.19,0.06,0.31c0,0.08,0,0.08,0,0.17c0,0.06,0,0.12,0,0.18
		s0,0.12,0,0.19c0,0.13,0,0.26,0,0.4c0,0.17,0,0.34,0,0.5s0,0.32,0,0.48c0,0.06,0,0.12,0,0.18c0,0.43-0.08,0.77-0.32,1.13
		c-0.03,0-0.06,0-0.1,0c0,0.03,0,0.06,0,0.1c-1.17,0.66-2.7,0.72-3.99,0.39c-0.16-0.05-0.3-0.11-0.44-0.2
		c-0.05-0.03-0.11-0.06-0.16-0.09c-0.3-0.24-0.45-0.47-0.53-0.84c-0.02-0.22-0.02-0.44-0.02-0.67c0-0.06,0-0.13,0-0.19
		c0-0.13,0-0.26,0-0.39c0-0.17,0-0.34,0-0.51c0-0.16,0-0.32,0-0.48c0-0.06,0-0.12,0-0.18s0-0.11,0-0.17c0-0.05,0-0.1,0-0.15
		C126.34,121.06,126.34,121.04,126.48,121.03z"/>
	<path class="st2" d="M20.22,120.97c0.65-0.03,0.65-0.03,0.9,0.16c0.21,0.25,0.35,0.55,0.5,0.84c0.13,0.25,0.28,0.47,0.43,0.7
		c0.06,0.09,0.11,0.18,0.17,0.27c0.03,0.04,0.06,0.09,0.08,0.13c0.13,0.21,0.27,0.42,0.4,0.63c0.02,0.04,0.05,0.08,0.07,0.12
		c0.1,0.16,0.2,0.32,0.3,0.48c0.12,0.2,0.25,0.39,0.38,0.57c0.1,0.14,0.1,0.14,0.1,0.24c-0.92,0.12-0.92,0.12-1.18-0.07
		c-0.15-0.18-0.25-0.39-0.34-0.6c-0.02-0.04-0.04-0.07-0.06-0.11c-0.01-0.03-0.03-0.06-0.04-0.09c-0.06-0.11-0.11-0.18-0.21-0.26
		c-0.21-0.06-0.43-0.07-0.65-0.07c-0.06,0-0.13,0-0.19-0.01c-0.13,0-0.27-0.01-0.4-0.01c-0.14,0-0.27-0.01-0.41-0.02
		c-0.76-0.07-0.76-0.07-1.42,0.21c-0.21,0.26-0.35,0.55-0.47,0.87c-0.04,0.1-0.04,0.1-0.09,0.15c-0.14,0-0.28,0-0.42,0
		c-0.04,0-0.08,0-0.12,0c-0.1,0-0.2,0-0.29,0c0.06-0.17,0.14-0.33,0.24-0.48c0.03-0.04,0.06-0.09,0.09-0.13
		c0.03-0.05,0.06-0.09,0.09-0.14s0.06-0.1,0.09-0.15c0.09-0.14,0.18-0.28,0.27-0.42c0.04-0.06,0.08-0.13,0.12-0.19
		c0.07-0.11,0.14-0.22,0.21-0.32c0.13-0.21,0.27-0.42,0.4-0.63c0.02-0.04,0.05-0.08,0.07-0.12c0.13-0.21,0.26-0.42,0.39-0.63
		c0.03-0.04,0.05-0.08,0.08-0.13c0.05-0.08,0.1-0.16,0.15-0.24c0.02-0.04,0.05-0.07,0.07-0.11c0.02-0.03,0.04-0.06,0.06-0.1
		c0.03-0.05,0.03-0.05,0.06-0.09c0.02-0.04,0.04-0.07,0.07-0.11C19.88,120.98,20.03,120.99,20.22,120.97z M20.27,121.68
		c-0.08,0.12-0.16,0.24-0.24,0.36c-0.02,0.04-0.05,0.07-0.07,0.11c-0.05,0.08-0.1,0.16-0.15,0.24c-0.08,0.13-0.16,0.26-0.25,0.39
		c-0.05,0.08-0.11,0.17-0.16,0.25c-0.04,0.06-0.04,0.06-0.08,0.12c-0.02,0.04-0.05,0.08-0.07,0.11c-0.03,0.05-0.03,0.05-0.06,0.1
		c-0.05,0.08-0.05,0.08-0.05,0.18c0.78,0,1.56,0,2.36,0c-0.07-0.19-0.14-0.32-0.25-0.49c-0.04-0.07-0.04-0.07-0.09-0.14
		c-0.03-0.05-0.06-0.09-0.09-0.14c-0.06-0.09-0.12-0.19-0.18-0.28c-0.03-0.05-0.06-0.09-0.09-0.14c-0.06-0.1-0.13-0.2-0.19-0.3
		c-0.03-0.05-0.06-0.1-0.09-0.15c-0.04-0.07-0.04-0.07-0.08-0.14c-0.02-0.03-0.05-0.07-0.07-0.1
		C20.34,121.68,20.3,121.68,20.27,121.68z"/>
	<path class="st2" d="M43.17,120.97c0.07,0,0.07,0,0.15,0.01c0.05,0,0.1,0,0.16,0c0.22,0.01,0.37,0.03,0.56,0.15
		c0.11,0.14,0.18,0.29,0.25,0.45c0.06,0.1,0.12,0.2,0.19,0.3c0.07,0.11,0.14,0.23,0.21,0.34c0.15,0.24,0.3,0.48,0.46,0.72
		c0.99,1.52,0.99,1.52,1.36,2.18c-0.92,0.11-0.92,0.11-1.17-0.06c-0.14-0.15-0.22-0.33-0.3-0.52c-0.02-0.03-0.03-0.07-0.05-0.11
		s-0.03-0.07-0.05-0.11c-0.1-0.19-0.18-0.31-0.38-0.38c-0.17-0.02-0.34-0.03-0.52-0.03c-0.06,0-0.13,0-0.19-0.01
		c-0.13,0-0.27,0-0.4,0c-0.14,0-0.27,0-0.41-0.01c-0.75-0.06-0.75-0.06-1.41,0.2c-0.2,0.23-0.32,0.49-0.43,0.78
		c-0.04,0.11-0.04,0.11-0.14,0.25c-0.09,0.02-0.09,0.02-0.2,0.01c-0.04,0-0.08,0-0.12,0c-0.04,0-0.08,0-0.13,0
		c-0.06,0-0.06,0-0.13,0c-0.1,0-0.21,0-0.31-0.01c0.18-0.32,0.36-0.62,0.57-0.92c0.22-0.32,0.42-0.64,0.62-0.97
		c0.34-0.55,0.68-1.09,1.04-1.62c0.08-0.12,0.08-0.12,0.15-0.25C42.7,121.06,42.83,120.98,43.17,120.97z M43.21,121.63
		c-0.05,0.08-0.11,0.17-0.16,0.25c-0.13,0.22-0.27,0.44-0.41,0.66c-0.03,0.05-0.06,0.1-0.09,0.15c-0.06,0.1-0.13,0.19-0.19,0.29
		c-0.04,0.07-0.04,0.07-0.09,0.14c-0.03,0.04-0.05,0.08-0.08,0.12c-0.07,0.12-0.07,0.12-0.11,0.31c0.78,0,1.56,0,2.36,0
		c-0.07-0.18-0.13-0.31-0.23-0.46c-0.03-0.04-0.05-0.08-0.08-0.12c-0.03-0.04-0.06-0.08-0.08-0.13c-0.06-0.09-0.12-0.18-0.17-0.26
		c-0.03-0.04-0.06-0.09-0.09-0.13c-0.07-0.11-0.15-0.23-0.22-0.34c-0.02-0.03-0.04-0.06-0.06-0.1c-0.04-0.06-0.08-0.12-0.11-0.18
		c-0.04-0.07-0.09-0.13-0.13-0.19C43.24,121.63,43.22,121.63,43.21,121.63z"/>
	<path class="st2" d="M67.8,121.01c0.11,0.03,0.11,0.03,0.23,0.12c0.03,0.05,0.06,0.1,0.08,0.15c0.05,0.08,0.1,0.16,0.15,0.24
		c0.06,0.09,0.12,0.18,0.17,0.28c0.06,0.1,0.12,0.2,0.19,0.29c0.03,0.05,0.06,0.09,0.09,0.14c0.1,0.16,0.2,0.32,0.3,0.47
		c0.22,0.34,0.44,0.68,0.66,1.03c0.13,0.2,0.26,0.41,0.39,0.61c0.02,0.03,0.04,0.06,0.06,0.09c0.05,0.08,0.1,0.16,0.16,0.24
		c0.09,0.14,0.16,0.29,0.23,0.44c-0.91,0.09-0.91,0.09-1.18-0.1c-0.13-0.19-0.23-0.39-0.33-0.6c-0.17-0.31-0.17-0.31-0.46-0.49
		c-0.17-0.03-0.34-0.04-0.52-0.04c-0.1,0-0.1,0-0.19-0.01c-0.13,0-0.27,0-0.4,0c-0.14,0-0.27,0-0.41-0.01
		c-0.75-0.06-0.75-0.06-1.41,0.22c-0.21,0.26-0.35,0.55-0.47,0.87c-0.04,0.1-0.04,0.1-0.09,0.15c-0.07,0-0.13,0.01-0.2,0
		c-0.04,0-0.08,0-0.12,0s-0.08,0-0.13,0c-0.04,0-0.08,0-0.13,0c-0.1,0-0.21,0-0.31,0c0.02-0.03,0.04-0.06,0.06-0.1
		c0.21-0.34,0.43-0.68,0.64-1.01c0.24-0.38,0.48-0.76,0.73-1.14c0.14-0.22,0.28-0.44,0.42-0.66c0.05-0.08,0.1-0.16,0.15-0.24
		c0.11-0.17,0.21-0.34,0.29-0.52C66.73,120.89,67.26,120.94,67.8,121.01z M67.23,121.63c-0.08,0.13-0.16,0.26-0.24,0.38
		c-0.23,0.38-0.47,0.76-0.71,1.14c-0.02,0.04-0.05,0.07-0.07,0.11c-0.02,0.03-0.04,0.07-0.06,0.1c-0.05,0.08-0.05,0.08-0.05,0.18
		c0.78,0,1.56,0,2.36,0c-0.07-0.17-0.12-0.3-0.22-0.45c-0.02-0.04-0.05-0.08-0.07-0.11c-0.04-0.06-0.04-0.06-0.08-0.12
		c-0.03-0.04-0.05-0.08-0.08-0.12c-0.17-0.27-0.35-0.54-0.52-0.8c-0.03-0.05-0.03-0.05-0.06-0.1c-0.05-0.07-0.1-0.14-0.15-0.22
		C67.26,121.63,67.24,121.63,67.23,121.63z"/>
	<path class="st2" d="M28.69,121.04c1.08-0.09,1.08-0.09,1.37,0.1c0.15,0.13,0.27,0.28,0.4,0.44c0.09,0.07,0.17,0.15,0.26,0.22
		c0.25,0.2,0.49,0.42,0.72,0.64c0.17,0.16,0.34,0.29,0.54,0.42c0.05-0.05,0.05-0.05,0.1-0.09c0.24-0.22,0.47-0.43,0.72-0.63
		c0.2-0.16,0.38-0.33,0.56-0.51c0.15-0.16,0.32-0.3,0.49-0.44c0.03-0.03,0.05-0.05,0.08-0.08c0.19-0.1,0.38-0.08,0.6-0.07
		c0.04,0,0.09,0,0.13,0c0.11,0,0.22,0,0.32,0.01c-0.31,0.38-0.67,0.69-1.05,1c-0.24,0.19-0.46,0.39-0.68,0.6
		c-0.22,0.2-0.44,0.39-0.68,0.58c-0.11,0.08-0.11,0.08-0.2,0.18c-0.01,0.13-0.02,0.26-0.02,0.39c0,0.04,0,0.08,0,0.12
		c0,0.12-0.01,0.24-0.01,0.37c0,0.08,0,0.17-0.01,0.25c0,0.2-0.01,0.4-0.01,0.61c-0.34,0-0.68,0-1.03,0c0-0.58,0-1.17,0-1.77
		c-0.06-0.03-0.13-0.06-0.2-0.1c-0.09-0.08-0.18-0.16-0.27-0.25c-0.19-0.17-0.37-0.34-0.58-0.5c-0.27-0.22-0.53-0.46-0.78-0.7
		c-0.19-0.19-0.39-0.36-0.6-0.54C28.78,121.19,28.78,121.19,28.69,121.04z"/>
	<path class="st2" d="M53.66,121.03c0.04,0,0.09,0,0.13,0c0.05,0,0.09,0,0.14,0c0.07,0,0.07,0,0.14,0s0.07,0,0.13,0
		c0.04,0,0.08,0,0.12,0c0.1,0.01,0.1,0.01,0.14,0.06c0,0.11,0.01,0.22,0.01,0.34c0,0.04,0,0.07,0,0.11c0,0.12,0,0.23,0,0.35
		c0,0.07,0,0.14,0,0.21c0,0.26,0,0.53,0,0.79c0,0.59,0,1.18,0,1.79c1.2,0,2.4,0,3.64,0c0,0.15,0,0.29,0,0.44c-1.56,0-3.12,0-4.73,0
		c0-0.66,0-1.33,0-2.01c0-0.21,0-0.42,0-0.64c0-0.26,0-0.26,0-0.38c0-0.08,0-0.17,0-0.25c0-0.13,0-0.25,0-0.38c0-0.04,0-0.08,0-0.11
		C53.39,121.03,53.39,121.03,53.66,121.03z"/>
	<path class="st2" d="M76.09,43.01c0.1,0.05,0.1,0.05,0.1,0.05L76.09,43.01z"/>
</g>
</svg>
