<svg xmlns="http://www.w3.org/2000/svg" width="100" height="100" viewBox="0 0 100 100"><path d="m88.477 45.117 -0.098 0.098v0.195l-0.098 0.098v0.293l-0.098 0.098v0.293l-0.098 0.098v0.293l-0.098 0.098v0.391l-0.098 0.098v0.195l-0.098 0.098v0.293l-0.098 0.098v0.293l-0.098 0.098v0.293l-0.098 0.098v0.293l-0.098 0.098v0.293l-0.098 0.098v0.293l-0.098 0.098v0.293l-0.098 0.098v0.293l-0.098 0.098v0.098l-0.098 0.098 0.098 0.098 -0.098 0.098v0.293l-0.098 0.098v0.195l-0.098 0.098v0.391l-0.098 0.098v0.293l-0.098 0.098v0.293l-0.098 0.098v0.293l-0.098 0.098v0.293l-0.098 0.098v0.293l-0.098 0.098v0.293l-0.098 0.098v0.293l-0.098 0.098v0.195l-0.195 0.195 0.098 0.098h1.758l0.098 -0.098v-0.293l0.098 -0.098v-0.293l0.098 -0.098v-0.293l0.098 -0.098v-0.293l0.098 -0.098v-0.391l0.098 -0.098h0.098l0.098 -0.098h1.172l0.098 0.098 0.098 -0.098h0.781l0.098 0.098 0.098 -0.098 0.195 0.195v0.293l0.098 0.098v0.293l0.098 0.098v0.293l0.098 0.098v0.293l0.098 0.098v0.391l0.098 0.098h1.855v-0.098l-0.098 -0.098v-0.195l-0.098 -0.098v-0.391l-0.098 -0.098v-0.195l-0.098 -0.098v-0.293l-0.098 -0.098v-0.293l-0.098 -0.098v-0.293l-0.098 -0.098v-0.195l-0.098 -0.098v-0.391l-0.098 -0.098v-0.195l-0.098 -0.098v-0.293l-0.098 -0.098v-0.293l-0.098 -0.098v-0.293l-0.098 -0.098v-0.293l-0.098 -0.098v-0.293l-0.098 -0.098v-0.195l-0.098 -0.098v-0.293l-0.098 -0.098v-0.293l-0.098 -0.098v-0.293l-0.098 -0.098v-0.293l-0.098 -0.098v-0.293l-0.098 -0.098v-0.293l-0.098 -0.098v-0.195l-0.098 -0.098v-0.293l-0.098 -0.098v-0.293l-0.098 -0.098v-0.391l-0.098 -0.098v-0.293l-0.098 -0.098v-0.098l-0.098 -0.098h-1.465l-0.098 0.098 -0.098 -0.098Zm-12.207 0v0.488l0.098 0.098v0.488l0.098 0.098v0.391l0.098 0.098v0.391l0.098 0.098v0.488l0.098 0.098v0.391l0.098 0.098v0.488l0.098 0.098v0.391l0.098 0.098v0.488l0.098 0.098v0.391l0.098 0.098v0.391l0.098 0.098v0.391l0.098 0.098v0.391l0.098 0.098v0.488l0.098 0.098v0.488l0.098 0.098v0.391l0.098 0.098v0.391l0.098 0.098v0.391l0.098 0.098v0.391l0.098 0.098v0.293h1.758l0.098 -0.098v-0.488l0.098 -0.098v-0.488l0.098 -0.098v-0.293l0.098 -0.098v-0.391l0.098 -0.098v-0.488l0.098 -0.098v-0.391l0.098 -0.098v-0.391l0.098 -0.098v-0.391l0.098 -0.098v-0.391l0.098 -0.098v-0.391l0.098 -0.098v-0.391l0.098 -0.098v-0.391l0.098 -0.098 0.098 0.098v0.098l0.098 0.098v0.391l0.098 0.098v0.391l0.098 0.098v0.391l0.098 0.098v0.488l0.098 0.098v0.293l0.098 0.098v0.488l0.098 0.098v0.293l0.098 0.098v0.293l0.098 0.098v0.488l0.098 0.098v0.293l0.098 0.098v0.488l0.098 0.098v0.391l0.098 0.098h1.758v-0.391l0.098 -0.098v-0.488l0.098 -0.098v-0.391l0.098 -0.098v-0.488l0.098 -0.098v-0.488l0.098 -0.098v-0.488l0.098 -0.098v-0.293l0.098 -0.098v-0.488l0.098 -0.098v-0.391l0.098 -0.098v-0.391l0.098 -0.098v-0.098l0.098 -0.098 -0.098 -0.098v-0.195l0.098 -0.098v-0.488l0.098 -0.098v-0.391l0.098 -0.098v-0.586l0.098 -0.098v-0.391l0.098 -0.098v-0.293l0.098 -0.098v-0.488l0.098 -0.098v-0.391l0.098 -0.098v-0.391l0.098 -0.098v-0.098l-0.098 -0.098 -0.098 0.098h-0.293l-0.098 -0.098h-1.172l-0.098 0.098v0.098l-0.098 0.098v0.586l-0.098 0.098v0.488l-0.098 0.098v0.488l-0.098 0.098v0.586l-0.098 0.098v0.488l-0.098 0.098v0.488l-0.098 0.098v0.586l-0.098 0.098v0.684l-0.098 0.098v0.684l-0.098 0.098 -0.098 -0.098v-0.098l-0.098 -0.098v-0.488l-0.098 -0.098v-0.293l-0.098 -0.098 0.098 -0.098 -0.098 -0.098v-0.195l-0.098 -0.098v-0.488l-0.098 -0.098v-0.488l-0.098 -0.098v-0.195l-0.098 -0.098 0.098 -0.098 -0.098 -0.098v-0.293l-0.098 -0.098v-0.391l-0.098 -0.098v-0.391l-0.098 -0.098v-0.293l-0.098 -0.098v-0.391l-0.098 -0.098v-0.586l-0.098 0.098 -0.098 -0.098h-1.367v0.098l-0.098 0.098v0.195l-0.098 0.098 0.098 0.098v0.098l-0.098 0.098v0.391l-0.098 0.098v0.391l-0.098 0.098v0.293l-0.098 0.098v0.488l-0.098 0.098v0.293l-0.098 0.098v0.391l-0.098 0.098v0.391l-0.098 0.098v0.391l-0.098 0.098v0.488l-0.098 0.098v0.391l-0.098 0.098v0.391l-0.098 0.098v0.195l-0.098 0.098 -0.098 -0.098v-0.488l-0.098 -0.098v-0.586l-0.098 -0.098v-0.586l-0.098 -0.098v-0.488l-0.098 -0.098v-0.488l-0.098 -0.098v-0.586l-0.098 -0.098v-0.586l-0.098 -0.098v-0.488l-0.098 -0.098v-0.586l-0.098 -0.098v-0.586l-0.098 0.098 -0.098 -0.098Zm-4.395 0 -0.098 0.098v0.195l-0.098 0.098v0.293l-0.098 0.098v0.391l-0.098 0.098v0.195l-0.098 0.098v0.293l-0.098 0.098v0.293l-0.098 0.098v0.391l-0.098 0.098v0.195l-0.195 0.195 0.098 0.098v0.195l-0.098 0.098v0.195l-0.098 0.098v0.391l-0.098 0.098v0.195l-0.098 0.098v0.293l-0.098 0.098v0.293l-0.098 0.098v0.293l-0.098 0.098v0.293l-0.098 0.098v0.293l-0.098 0.098v0.293l-0.098 0.098v0.293l-0.098 0.098v0.293l-0.098 0.098v0.293l-0.098 0.098v0.293l-0.098 0.098v0.195l-0.098 0.098v0.391l-0.098 0.098v0.195l-0.098 0.098v0.098l-0.098 0.098 0.098 0.098 -0.098 0.098v0.195h1.855v-0.293l0.098 -0.098v-0.391l0.098 -0.098v-0.293l0.098 -0.098v-0.293l0.098 -0.098v-0.391l0.195 -0.195h2.539l0.098 0.098v0.195l0.098 0.098v0.293l0.098 0.098v0.293l0.098 0.098v0.293l0.098 0.098v0.391l0.098 0.098v0.195h1.855v-0.195l-0.098 -0.098 0.098 -0.098 -0.098 -0.098v-0.195l-0.098 -0.098v-0.195l-0.098 -0.098v-0.293l-0.098 -0.098v-0.293l-0.098 -0.098v-0.195l-0.098 -0.098v-0.293l-0.098 -0.098v-0.293l-0.098 -0.098v-0.293l-0.098 -0.098v-0.195l-0.098 -0.098v-0.293l-0.098 -0.098v-0.293l-0.098 -0.098v-0.293l-0.098 -0.098v-0.293l-0.098 -0.098v-0.293l-0.098 -0.098v-0.195l-0.098 -0.098v-0.293l-0.098 -0.098v-0.195l-0.098 -0.098v-0.293l-0.098 -0.098v-0.293l-0.098 -0.098v-0.293l-0.098 -0.098v-0.293l-0.098 -0.098v-0.293l-0.098 -0.098v-0.195l-0.098 -0.098v-0.391l-0.098 -0.098v-0.195l-0.098 -0.098v-0.293l-0.098 -0.098v-0.195h-0.098l-0.098 -0.098h-0.098l-0.098 0.098h-0.195l-0.098 -0.098h-1.172l-0.098 0.098 -0.098 -0.098Zm-9.668 0v10.254h3.223l0.098 -0.098h0.391l0.098 -0.098h0.293l0.098 -0.098h0.195l0.098 -0.098h0.195l0.293 -0.293h0.098l0.586 -0.586h0.098l0.098 -0.098v-0.195l0.195 -0.195v-0.098l0.098 -0.098 0.098 0.098 -0.098 -0.098v-0.195l0.098 -0.098v-0.195l0.098 -0.098v-0.195l0.098 -0.098v-0.391l0.098 -0.098v-0.684l0.098 -0.098v-1.953l-0.098 -0.098v-0.684l-0.098 -0.098v-0.293l-0.098 -0.098v-0.293l-0.098 -0.098v-0.195l-0.098 -0.098v-0.195l-0.098 -0.098v-0.098l-0.098 -0.098v-0.098l-0.195 -0.195v-0.098l-0.684 -0.684h-0.098l-0.195 -0.195h-0.098l-0.098 -0.098h-0.098l-0.098 -0.098h-0.195l-0.098 -0.098h-0.293l-0.098 -0.098h-1.074l-0.098 -0.098h-1.465l-0.098 0.098 -0.098 -0.098h-0.684l-0.098 0.098Zm-1.66 -0.098 -0.195 0.195h-0.098l-0.098 -0.098h-0.879l-0.098 0.098 -0.098 -0.098 -0.098 0.098 -0.098 -0.098h-0.098v6.055l-0.098 0.098 -0.098 -0.098v-0.195l-0.098 -0.098v-0.098l-0.098 -0.098v-0.098l-0.098 -0.098v-0.195l-0.098 -0.098v-0.098l-0.098 -0.098v-0.195l-0.098 -0.098v-0.098l-0.098 -0.098v-0.098l-0.098 -0.098v-0.195l-0.098 -0.098v-0.098l-0.098 -0.098v-0.195l-0.098 -0.098v-0.098l-0.098 -0.098v-0.098l-0.098 -0.098v-0.098l-0.098 -0.098v-0.195l-0.098 -0.098v-0.098l-0.098 -0.098v-0.195l0.098 -0.098 -0.098 0.098 -0.098 -0.098v-0.098l-0.098 -0.098v-0.195l-0.098 -0.098v-0.098l-0.098 -0.098v-0.098l-0.098 -0.098v-0.195l-0.098 -0.098v-0.098l-0.098 -0.098v-0.195l-0.098 -0.098v-0.098l-0.098 -0.098v-0.098l-0.098 -0.098 -0.098 0.098 -0.098 -0.098h-0.098l-0.098 0.098 -0.098 -0.098h-1.27l-0.098 0.098v10.156h1.758v-6.25l0.098 -0.098 0.098 0.098v0.098l0.098 0.098v0.098l0.098 0.098v0.195l0.098 0.098v0.098l0.098 0.098v0.195l-0.098 0.098 0.098 -0.098 0.098 0.098v0.098l0.098 0.098v0.195l0.098 0.098v0.098l0.098 0.098 -0.098 0.098h0.098l0.098 0.098v0.195l0.098 0.098v0.098l0.098 0.098v0.098l0.098 0.098v0.098l0.098 0.098v0.195l0.098 0.098v0.195l0.098 0.098v0.098l0.098 0.098v0.098l0.098 0.098v0.098l0.098 0.098v0.195l0.098 0.098v0.098l0.098 0.098v0.195l0.098 0.098v0.098l0.098 0.098v0.098l0.098 0.098v0.195l0.098 0.098v0.098l0.098 0.098v0.098l0.098 0.098v0.098l0.098 0.098v0.098h1.758V45.215l-0.098 -0.098Zm-21.484 0 0.098 0.098 -0.098 0.098v0.293l0.098 0.098v0.195l-0.098 0.098v5.469l0.098 0.098 -0.098 0.098v1.27l0.098 0.098v0.098l-0.098 0.098v0.488l0.098 0.098v0.098l-0.098 0.098 0.098 0.098v0.488l-0.098 0.098v0.195l0.098 0.098v0.098l-0.098 0.098 0.098 0.098 -0.098 0.098 0.098 0.098h1.66l0.098 -0.098 -0.098 -0.098 0.098 -0.098v-0.098l-0.098 -0.098 0.098 -0.098v-2.441l-0.098 -0.098 0.098 -0.098v-0.098l0.195 -0.195v-0.098l0.195 -0.195v-0.098l0.098 -0.098v-0.098l0.195 -0.195h0.098l0.098 0.098v0.195l0.098 0.098v0.195l0.195 0.195v0.195l0.098 0.098v0.098l0.098 0.098v0.098l0.098 0.098v0.098l0.098 0.098v0.098l0.098 0.098v0.195l0.098 0.098v0.098l0.098 0.098 -0.195 0.195 0.098 -0.098h0.098l0.098 0.098v0.098l0.098 0.098v0.098l0.098 0.098v0.098l0.098 0.098v0.098l-0.098 0.098 0.098 -0.098 0.098 0.098v0.098l0.098 0.098v0.195l0.098 0.098v0.098l0.098 0.098v0.098l0.098 0.098v0.098h2.051v-0.098l0.098 -0.098 0.098 0.098v0.098h1.855l0.098 -0.098v-0.391l0.098 -0.098v-0.391l0.098 -0.098v-0.195l0.098 -0.098v-0.391l0.098 -0.098v-0.195l0.195 -0.195h2.344l0.098 0.098h0.098l0.098 0.098v0.098l-0.098 0.098 0.098 0.098v0.098l0.098 0.098v0.391l0.098 0.098v0.293l0.098 0.098v0.391l0.098 0.098v0.195h1.855l0.098 -0.098 -0.098 -0.098v-0.195l-0.098 -0.098v-0.293l-0.098 -0.098v-0.195l-0.098 -0.098v-0.293l-0.098 -0.098v-0.293l-0.098 -0.098v-0.293l-0.098 -0.098v-0.293l-0.098 -0.098v-0.293l-0.098 -0.098v-0.195l-0.098 -0.098v-0.293l-0.098 -0.098v-0.293l-0.098 -0.098v-0.293l-0.098 -0.098v-0.195l-0.098 -0.098v-0.293l-0.098 -0.098v-0.293l-0.098 -0.098v-0.293l-0.098 -0.098v-0.293l-0.098 -0.098v-0.195l-0.098 -0.098v-0.195l0.098 -0.098 -0.195 -0.195v-0.195l-0.098 -0.098v-0.293l-0.098 -0.098v-0.293l-0.098 -0.098v-0.293l-0.098 -0.098v-0.195l-0.098 -0.098v-0.293l-0.098 -0.098v-0.293l-0.098 -0.098v-0.293l-0.098 -0.098h-0.098l-0.098 -0.098h-1.27l-0.098 0.098 -0.098 -0.098h-0.293l-0.098 0.098 -0.098 -0.098v0.195l-0.098 0.098v0.293l-0.098 0.098v0.293l-0.098 0.098v0.293l-0.098 0.098v0.293l-0.098 0.098v0.293l-0.098 0.098v0.293l-0.098 0.098v0.293l-0.098 0.098v0.293l-0.098 0.098v0.293l-0.098 0.098v0.293l-0.098 0.098v0.293l-0.098 0.098v0.293l-0.098 0.098v0.195l-0.098 0.098v0.293l-0.098 0.098v0.293l-0.098 0.098v0.293l-0.098 0.098v0.293l-0.098 0.098v0.098l-0.098 0.098 0.098 0.098 -0.098 0.098v0.293l-0.098 0.098v0.195l-0.098 0.098v0.293l-0.098 0.098v0.293l-0.098 0.098v0.293l-0.098 0.098v0.293l-0.098 0.098v0.293l-0.098 0.098v0.195l-0.098 0.098 -0.098 -0.098 -0.098 0.098 -0.098 -0.098v-0.098l-0.098 -0.098v-0.098l-0.098 -0.098v-0.098l-0.098 -0.098v-0.195l-0.195 -0.195v-0.098l-0.098 -0.098v-0.098l-0.098 -0.098v-0.098l-0.098 -0.098v-0.098l-0.098 -0.098v-0.098l-0.098 -0.098v-0.098l-0.098 -0.098v-0.195l-0.195 -0.195v-0.195l-0.098 -0.098v-0.098l-0.098 -0.098v-0.098l-0.098 -0.098v-0.098l-0.098 -0.098 0.098 -0.098h-0.098l-0.098 -0.098v-0.098l-0.098 -0.098v-0.098l-0.098 -0.098 0.098 -0.098h-0.098l-0.098 -0.098v-0.098l-0.098 -0.098v-0.098l-0.098 -0.098v-0.098l-0.098 -0.098v-0.098l-0.098 -0.098v-0.098l-0.098 -0.098v-0.098l-0.098 -0.098v-0.195l-0.098 -0.098v-0.098l0.098 -0.098 0.098 0.098 -0.098 -0.098 0.098 -0.098v-0.098l0.098 -0.098v-0.098l0.098 -0.098v-0.098l0.195 -0.195v-0.098l0.098 -0.098v-0.098l0.195 -0.195v-0.098l0.195 -0.195v-0.098l0.098 -0.098v-0.098l0.098 -0.098v-0.098l0.195 -0.195v-0.098l0.098 -0.098v-0.098l0.195 -0.195v-0.098l0.098 -0.098v-0.098l0.195 -0.195v-0.098l0.098 -0.098v-0.098l0.098 -0.098v-0.098l0.195 -0.195v-0.098l0.098 -0.098v-0.098h-1.953v0.098l-0.195 0.195v0.098l-0.098 0.098v0.098l-0.098 0.098v0.098l-0.195 0.195h-0.098l0.098 0.098 -0.098 0.098v0.098l-0.098 0.098v0.098l-0.195 0.195v0.098l-0.195 0.195v0.098l-0.098 0.098h-0.098l0.098 0.098 -0.098 0.098v0.098l-0.098 0.098v0.098l-0.098 0.098v0.098l-0.195 0.195v0.098l-0.098 0.098v0.098l-0.098 0.098v0.098l-0.195 0.195v0.098l-0.195 0.195v0.195l-0.098 0.098v0.098l-0.098 0.098 -0.098 -0.098v-0.586l0.098 -0.098 -0.098 -0.098v-1.563l0.098 -0.098v-0.098l-0.098 -0.098v-0.684l0.098 -0.098 -0.098 -0.098v-0.684l0.098 -0.098 -0.098 -0.098 0.098 -0.098 -0.098 0.098h-1.66Zm-5.273 0 -0.098 0.098h-0.293l-0.098 0.098h-0.098l-0.098 -0.098 0.098 0.098 -0.098 0.098h-0.098l-0.098 0.098h-0.098l-0.488 0.488 -0.098 -0.098 0.098 0.098 -0.195 0.195v0.098l-0.098 0.098v0.098l-0.098 0.098v0.098l-0.098 0.098v0.098l-0.098 0.098v0.391l-0.098 0.098v0.977l0.098 0.098v0.293l0.098 0.098v0.195l0.195 0.195v0.098l0.098 0.098v0.098l0.391 0.391v0.098h0.098l0.098 0.098h0.098l0.293 0.293h0.098l0.195 0.195h0.098l0.098 0.098h0.098l0.098 0.098h0.098l0.098 0.098h0.098l0.098 0.098h0.098l0.195 0.195h0.195l0.195 0.195h0.098l0.098 0.098h0.098l0.195 0.195h0.098l0.293 0.293v0.098l0.195 0.195v0.195l0.098 0.098v0.391l-0.098 0.098v0.195l-0.195 0.195v0.098l-0.098 0.098h-0.098l-0.098 0.098h-0.098l-0.098 0.098h-1.074l-0.098 -0.098h-0.098l-0.391 -0.391v-0.098l-0.098 -0.098v-0.195l-0.098 -0.098v-0.391l-0.098 -0.098 0.098 -0.098 -0.098 -0.098h-1.367l-0.098 -0.098 -0.098 0.098h-0.195v0.684l0.098 0.098v0.488l0.098 0.098v0.195l0.098 0.098v0.195l0.195 0.195v0.098l0.098 0.098v0.098l0.293 0.293h0.098l0.293 0.293h0.098l0.098 0.098h0.098l0.098 0.098h0.098l0.098 0.098h0.391l0.098 0.098h1.758l0.098 -0.098h0.293l0.098 -0.098h0.098l0.098 -0.098h0.098l0.098 -0.098h0.098l0.488 -0.488h0.098v-0.098l0.195 -0.195v-0.098l0.098 -0.098v-0.098l0.098 -0.098v-0.098l0.098 -0.098v-0.098l0.098 -0.098 -0.098 -0.098v-0.098l0.098 -0.098v-1.367l-0.098 -0.098v-0.195l-0.098 -0.098v-0.098l-0.098 -0.098v-0.098l-0.098 -0.098v-0.098l-0.293 -0.293v-0.098h-0.098l-0.391 -0.391h-0.098l-0.293 -0.293h-0.098l-0.098 -0.098h-0.098l-0.098 -0.098h-0.098l-0.098 -0.098h-0.098l-0.098 -0.098h-0.098l-0.098 -0.098h-0.098l-0.195 -0.195h-0.098l-0.098 -0.098h-0.098l-0.098 -0.098 0.098 -0.098 -0.098 0.098h-0.098l-0.195 -0.195h-0.098l-0.488 -0.488v-0.098l-0.098 -0.098v-0.098l-0.098 -0.098 0.098 -0.098 -0.098 -0.098v-0.293l0.098 -0.098v-0.195l0.391 -0.391h0.098l0.098 -0.098h0.195l0.098 -0.098h0.391l0.098 0.098h0.195l0.195 0.195h0.098l0.098 0.098v0.098l-0.098 0.098 0.098 -0.098 0.098 0.098v0.098l0.098 0.098v0.293l0.098 0.098v0.391l0.098 -0.098h1.66l-0.098 -0.098v-0.098l0.098 -0.098v-0.098l-0.098 -0.098v-0.586l-0.098 -0.098v-0.293l-0.098 -0.098v-0.098l-0.098 -0.098v-0.098l-0.195 -0.195v-0.098l-0.391 -0.391h-0.098l-0.098 -0.098h-0.098l-0.195 -0.195h-0.195l-0.098 -0.098h-0.293l-0.098 -0.098Zm-15.723 -7.422 -0.098 0.098h-0.098l-0.195 0.195h-0.098l-0.195 0.195 -0.098 -0.098 0.098 0.098 -0.195 0.195v0.098l-0.195 0.195v0.098l-0.195 0.195v0.098l-0.195 0.195v0.098l-0.098 0.098v0.098l-0.098 0.098 -0.098 -0.098 0.098 0.098 -0.098 0.098v0.098l-0.098 0.098v0.098l-0.195 0.195v0.098l-0.195 0.195v0.098l-0.195 0.195v0.098l-0.098 0.098v0.098l-0.195 0.195v0.098l-0.195 0.195v0.098l-0.098 0.098v0.098l-0.195 0.195v0.098l-0.195 0.195v0.098l-0.195 0.195v0.098l-0.098 0.098v0.098l-0.195 0.195v0.098l-0.195 0.195v0.098l-0.195 0.195v0.098l-0.098 0.098v0.098l-0.195 0.195v0.098l-0.098 0.098h-0.098v0.195l-0.098 0.098h-0.098v0.195l-0.195 0.195v0.098l-0.195 0.195v0.098l-0.195 0.195v0.098l-0.195 0.195v0.098l-0.098 0.098v0.098l-0.098 0.098v0.098l-0.293 0.293v0.098l-0.195 0.195v0.098l-0.098 0.098v0.098l-0.195 0.195v0.098l-0.195 0.195v0.098l-0.195 0.195v0.098l-0.195 0.195v0.098l-0.098 0.098v0.098l-0.195 0.195v0.098l-0.195 0.195v0.098l-0.195 0.195v0.098l-0.098 0.098h-0.098v0.195l-0.195 0.195v0.098l-0.098 0.098v0.098l-0.098 0.098v0.098l-0.098 0.098v0.098l-0.098 0.098v0.098l-0.098 0.098v0.293l-0.098 0.098v0.879l0.098 0.098v0.293l0.098 0.098v0.195l0.098 0.098v0.098l0.195 0.195v0.098l0.684 0.684h0.098l0.488 0.488h0.098l0.488 0.488h0.098l0.488 0.488h0.098l0.488 0.488h0.098l0.293 0.293h0.098l0.293 0.293v0.098l0.098 -0.098 0.391 0.391h0.098l0.391 0.391h0.098l0.391 0.391h0.098l0.293 0.293h0.098l0.488 0.488h0.098l0.293 0.293h0.098l0.195 0.195h0.098l0.293 0.293h0.098l0.195 0.195h0.098l0.098 0.098h0.195l0.098 0.098h0.195l0.098 0.098h0.879l0.098 -0.098h0.293l0.098 -0.098h0.195l0.098 -0.098h0.098l0.195 -0.195h0.098l0.098 -0.098h0.098l0.391 -0.391h0.098l0.391 -0.391h0.098l0.488 -0.488h0.098l0.391 -0.391h0.098l0.391 -0.391h0.098l0.293 -0.293h0.098l0.391 -0.391h0.098l0.195 -0.195 0.098 0.098 -0.098 -0.098 0.195 -0.195h0.098l0.488 -0.488h0.098l0.391 -0.391h0.098l0.293 -0.293h0.098l0.195 -0.195h0.098v-0.098l0.098 -0.098h0.098l0.488 -0.488h0.098l0.586 -0.586v-0.098l0.293 -0.293v-0.098l0.098 -0.098v-0.098l0.098 -0.098 0.098 0.098 -0.098 -0.098v-0.195l0.098 -0.098h0.098l-0.098 -0.098v-1.172l-0.098 -0.098v-0.195l-0.098 -0.098v-0.098l-0.098 -0.098v-0.098l-0.098 -0.098v-0.098l-0.098 -0.098v-0.098l-0.195 -0.195v-0.098l-0.098 -0.098 0.098 -0.098 -0.098 0.098 -0.098 -0.098v-0.195h-0.098l-0.098 -0.098v-0.098l-0.195 -0.195v-0.098l-0.098 -0.098v-0.098l-0.195 -0.195v-0.098l-0.195 -0.195v-0.098l-0.195 -0.195v-0.098l-0.195 -0.195v-0.098l-0.195 -0.195v-0.098l-0.195 -0.195v-0.098l-0.098 -0.098v-0.098l-0.098 -0.098v-0.098l-0.293 -0.293v-0.098l-0.195 -0.195v-0.098l-0.195 -0.195v-0.098l-0.098 -0.098v-0.098l-0.195 -0.195v-0.098l-0.195 -0.195v-0.098l-0.195 -0.195v-0.098l-0.098 -0.098v-0.098l-0.293 -0.293v-0.098l-0.098 -0.098v-0.098l-0.195 -0.195v-0.098l-0.195 -0.195v-0.098l-0.195 -0.195v-0.098l-0.195 -0.195v-0.098l-0.098 -0.098v-0.098l-0.195 -0.195v-0.098l-0.195 -0.195v-0.098l-0.195 -0.195v-0.098l-0.195 -0.195v-0.098l-0.195 -0.195v-0.098l-0.098 -0.098v-0.098l-0.195 -0.195v-0.098l-0.195 -0.195v-0.098l-0.098 -0.098v-0.098l-0.195 -0.195v-0.098l-0.195 -0.195v-0.098l0.098 -0.098 -0.098 0.098 -0.195 -0.195v-0.098l-0.195 -0.195v-0.098l-0.098 -0.098v-0.098l-0.195 -0.195v-0.098l-0.488 -0.488h-0.098l-0.098 -0.098h-0.098l-0.098 -0.098Z" fill="green"/></svg>
